<svg xmlns="http://www.w3.org/2000/svg" viewBox="0 0 900 500" font-family="'Cascadia Code','Fira Code','JetBrains Mono',monospace">
  <defs>
    <style>
      .bg { fill: #1e1e1e; }
      .panel { fill: #252526; }
      .border { stroke: #3c3c3c; stroke-width: 1; fill: none; }
      .text { fill: #d4d4d4; font-size: 11px; }
      .dim { fill: #858585; font-size: 10px; }
      .accent { fill: #569cd6; }
      .cyan { fill: #4ec9b0; }
      .yellow { fill: #dcdcaa; }
      .green { fill: #6a9955; }
      .red { fill: #f44747; }
      .magenta { fill: #c586c0; }
      .title { fill: #569cd6; font-size: 14px; font-weight: 600; }
      .small { font-size: 9px; }
      .code { fill: #d4d4d4; font-size: 10px; }
      .keyword { fill: #569cd6; font-size: 10px; }
      .string { fill: #ce9178; font-size: 10px; }
      .comment { fill: #6a9955; font-size: 10px; }
      .func { fill: #dcdcaa; font-size: 10px; }
    </style>
  </defs>

  <!-- Background -->
  <rect width="900" height="500" class="bg" rx="8"/>

  <!-- Window chrome -->
  <rect width="900" height="30" class="panel" rx="8"/>
  <rect x="0" y="22" width="900" height="8" class="panel"/>
  <circle cx="16" cy="15" r="5" fill="#f44747" opacity="0.8"/>
  <circle cx="32" cy="15" r="5" fill="#dcdcaa" opacity="0.8"/>
  <circle cx="48" cy="15" r="5" fill="#6a9955" opacity="0.8"/>
  <text x="450" y="18" text-anchor="middle" class="dim" font-size="11">localhost:3456</text>

  <!-- Header -->
  <rect x="0" y="30" width="900" height="32" class="panel"/>
  <line x1="0" y1="62" x2="900" y2="62" stroke="#3c3c3c"/>
  <text x="16" y="51" class="title">monitor-agent</text>
  <text x="620" y="51" class="yellow" font-size="11">Running: 2</text>
  <text x="720" y="51" class="green" font-size="11">Done: 47</text>
  <text x="800" y="51" class="red" font-size="11">Err: 0</text>

  <!-- Activity Panel -->
  <rect x="0" y="62" width="350" height="410" class="bg"/>
  <line x1="350" y1="62" x2="350" y2="472" stroke="#3c3c3c"/>

  <!-- Activity Header -->
  <rect x="0" y="62" width="350" height="22" class="panel"/>
  <line x1="0" y1="84" x2="350" y2="84" stroke="#3c3c3c"/>
  <text x="12" y="77" class="dim" font-size="9" letter-spacing="1">ACTIVITY FEED</text>

  <!-- Activity Items -->
  <!-- Item 1 -->
  <text x="12" y="100" class="dim">14:22:03</text>
  <text x="75" y="100" class="yellow">&#9654;</text>
  <text x="90" y="100" class="cyan">Read</text>
  <text x="140" y="100" class="dim">src/components/App.tsx</text>

  <!-- Item 2 -->
  <text x="12" y="116" class="dim">14:22:03</text>
  <text x="75" y="116" class="green">&#10003;</text>
  <text x="90" y="116" class="cyan">Read</text>
  <text x="140" y="116" class="dim">src/components/App.tsx</text>
  <text x="305" y="116" class="magenta">52ms</text>

  <!-- Item 3 -->
  <text x="12" y="132" class="dim">14:22:08</text>
  <text x="75" y="132" class="yellow">&#9654;</text>
  <text x="90" y="132" class="cyan">Glob</text>
  <text x="140" y="132" class="dim">**/*.test.ts</text>

  <!-- Item 4 -->
  <text x="12" y="148" class="dim">14:22:09</text>
  <text x="75" y="148" class="green">&#10003;</text>
  <text x="90" y="148" class="cyan">Glob</text>
  <text x="140" y="148" class="dim">**/*.test.ts</text>
  <text x="305" y="148" class="magenta">1.2s</text>

  <!-- Item 5 -->
  <text x="12" y="164" class="dim">14:22:15</text>
  <text x="75" y="164" class="yellow">&#9654;</text>
  <text x="90" y="164" class="cyan">Edit</text>
  <text x="140" y="164" class="dim">src/utils/helpers.ts</text>

  <!-- Item 6 -->
  <text x="12" y="180" class="dim">14:22:15</text>
  <text x="75" y="180" class="green">&#10003;</text>
  <text x="90" y="180" class="cyan">Edit</text>
  <text x="140" y="180" class="dim">src/utils/helpers.ts</text>
  <text x="305" y="180" class="magenta">68ms</text>

  <!-- Item 7 -->
  <text x="12" y="196" class="dim">14:22:20</text>
  <text x="75" y="196" class="yellow">&#9654;</text>
  <text x="90" y="196" class="cyan">Bash</text>
  <text x="140" y="196" class="dim">npm test -- --watch</text>

  <!-- Item 8 -->
  <text x="12" y="212" class="dim">14:22:25</text>
  <text x="75" y="212" class="green">&#10003;</text>
  <text x="90" y="212" class="cyan">Bash</text>
  <text x="140" y="212" class="dim">npm test -- --watch</text>
  <text x="305" y="212" class="magenta">5.1s</text>

  <!-- Item 9 -->
  <text x="12" y="228" class="dim">14:22:30</text>
  <text x="75" y="228" class="yellow">&#9654;</text>
  <text x="90" y="228" class="cyan">Grep</text>
  <text x="140" y="228" class="dim">handleSubmit</text>

  <!-- Item 10 -->
  <text x="12" y="244" class="dim">14:22:30</text>
  <text x="75" y="244" class="green">&#10003;</text>
  <text x="90" y="244" class="cyan">Grep</text>
  <text x="140" y="244" class="dim">handleSubmit</text>
  <text x="305" y="244" class="magenta">95ms</text>

  <!-- Item 11 - Agent -->
  <text x="12" y="260" class="dim">14:22:35</text>
  <text x="75" y="260" class="yellow">&#9654;</text>
  <text x="90" y="260" class="cyan">Agent</text>
  <text x="140" y="260" class="dim">Explore: "Find auth code..."</text>

  <!-- Item 12 -->
  <text x="12" y="276" class="dim">14:23:02</text>
  <text x="75" y="276" class="green">&#10003;</text>
  <text x="90" y="276" class="cyan">Agent</text>
  <text x="140" y="276" class="dim">Explore: "Find auth code..."</text>
  <text x="295" y="276" class="magenta">27.4s</text>

  <!-- Item 13 - Write -->
  <text x="12" y="292" class="dim">14:23:10</text>
  <text x="75" y="292" class="yellow">&#9654;</text>
  <text x="90" y="292" class="cyan">Write</text>
  <text x="140" y="292" class="dim">src/auth/login.ts</text>

  <!-- Item 14 -->
  <text x="12" y="308" class="dim">14:23:10</text>
  <text x="75" y="308" class="green">&#10003;</text>
  <text x="90" y="308" class="cyan">Write</text>
  <text x="140" y="308" class="dim">src/auth/login.ts</text>
  <text x="305" y="308" class="magenta">45ms</text>

  <!-- Item 15 - Playwright -->
  <text x="12" y="324" class="dim">14:23:15</text>
  <text x="75" y="324" class="yellow">&#9654;</text>
  <text x="90" y="324" class="cyan" font-size="9">Playwright:b</text>

  <!-- Item 16 -->
  <text x="12" y="340" class="dim">14:23:16</text>
  <text x="75" y="340" class="green">&#10003;</text>
  <text x="90" y="340" class="cyan" font-size="9">Playwright:b</text>
  <text x="305" y="340" class="magenta">1.1s</text>

  <!-- Item 17 - Error -->
  <text x="12" y="356" class="dim">14:23:20</text>
  <text x="75" y="356" class="yellow">&#9654;</text>
  <text x="90" y="356" class="cyan">Bash</text>
  <text x="140" y="356" class="dim">npm run build</text>

  <!-- Item 18 -->
  <text x="12" y="372" class="dim">14:23:28</text>
  <text x="75" y="372" class="red">&#10007;</text>
  <text x="90" y="372" class="cyan">Bash</text>
  <text x="140" y="372" class="dim">npm run build</text>
  <text x="305" y="372" class="magenta">8.3s</text>

  <!-- More items faded -->
  <text x="12" y="388" class="dim">14:23:35</text>
  <text x="75" y="388" class="yellow">&#9654;</text>
  <text x="90" y="388" class="cyan">Read</text>
  <text x="140" y="388" class="dim">tsconfig.json</text>

  <text x="12" y="404" class="dim">14:23:35</text>
  <text x="75" y="404" class="green">&#10003;</text>
  <text x="90" y="404" class="cyan">Read</text>
  <text x="140" y="404" class="dim">tsconfig.json</text>
  <text x="305" y="404" class="magenta">12ms</text>

  <!-- Code Viewer Panel -->
  <rect x="350" y="62" width="550" height="410" class="bg"/>

  <!-- Code Header -->
  <rect x="350" y="62" width="550" height="22" class="panel"/>
  <line x1="350" y1="84" x2="900" y2="84" stroke="#3c3c3c"/>
  <text x="365" y="77" class="accent" font-size="11">src/auth/login.ts</text>
  <text x="820" y="77" class="dim" font-size="10">42 lines</text>

  <!-- Code Content -->
  <text x="370" y="100" class="comment">// Authentication module</text>
  <text x="370" y="116" class="keyword">import</text><text x="412" y="116" class="code"> { Router } </text><text x="480" y="116" class="keyword">from</text><text x="508" y="116" class="string"> 'express'</text><text x="570" y="116" class="code">;</text>
  <text x="370" y="132" class="keyword">import</text><text x="412" y="132" class="code"> { validateToken } </text><text x="530" y="132" class="keyword">from</text><text x="558" y="132" class="string"> './jwt'</text><text x="600" y="132" class="code">;</text>
  <text x="370" y="148" class="code"> </text>
  <text x="370" y="164" class="keyword">const</text><text x="403" y="164" class="code"> router = </text><text x="465" y="164" class="func">Router</text><text x="500" y="164" class="code">();</text>
  <text x="370" y="180" class="code"> </text>
  <text x="370" y="196" class="keyword">export</text><text x="408" y="196" class="keyword"> async</text><text x="448" y="196" class="keyword"> function</text><text x="500" y="196" class="func"> login</text><text x="530" y="196" class="code">(</text>
  <text x="385" y="212" class="code">email: </text><text x="430" y="212" class="cyan">string</text><text x="466" y="212" class="code">,</text>
  <text x="385" y="228" class="code">password: </text><text x="448" y="228" class="cyan">string</text>
  <text x="370" y="244" class="code">): </text><text x="385" y="244" class="cyan">Promise</text><text x="425" y="244" class="code">&lt;</text><text x="433" y="244" class="cyan">AuthResult</text><text x="490" y="244" class="code">&gt; {</text>
  <text x="385" y="260" class="keyword">const</text><text x="418" y="260" class="code"> user = </text><text x="468" y="260" class="keyword">await</text><text x="500" y="260" class="func"> findUser</text><text x="555" y="260" class="code">(email);</text>
  <text x="385" y="276" class="keyword">if</text><text x="398" y="276" class="code"> (!user) {</text>
  <text x="400" y="292" class="keyword">throw</text><text x="435" y="292" class="keyword"> new</text><text x="460" y="292" class="func"> AuthError</text><text x="520" y="292" class="code">(</text><text x="528" y="292" class="string">'User not found'</text><text x="630" y="292" class="code">);</text>
  <text x="385" y="308" class="code">}</text>
  <text x="385" y="324" class="code"> </text>
  <text x="385" y="340" class="keyword">const</text><text x="418" y="340" class="code"> valid = </text><text x="472" y="340" class="keyword">await</text><text x="505" y="340" class="func"> compare</text><text x="553" y="340" class="code">(password, user.hash);</text>
  <text x="385" y="356" class="keyword">if</text><text x="398" y="356" class="code"> (!valid) </text><text x="448" y="356" class="keyword">throw</text><text x="483" y="356" class="keyword"> new</text><text x="507" y="356" class="func"> AuthError</text><text x="568" y="356" class="code">(</text><text x="576" y="356" class="string">'Invalid password'</text><text x="685" y="356" class="code">);</text>
  <text x="385" y="372" class="code"> </text>
  <text x="385" y="388" class="keyword">return</text><text x="422" y="388" class="code"> { token: </text><text x="482" y="388" class="func">signToken</text><text x="535" y="388" class="code">(user.id), user };</text>
  <text x="370" y="404" class="code">}</text>

  <!-- Footer -->
  <rect x="0" y="472" width="900" height="28" class="panel" rx="0"/>
  <rect x="0" y="492" width="900" height="8" class="panel" rx="8"/>
  <line x1="0" y1="472" x2="900" y2="472" stroke="#3c3c3c"/>
  <circle cx="14" cy="486" r="4" fill="#6a9955"/>
  <text x="24" y="489" class="dim" font-size="10">Connected</text>
  <text x="700" y="489" class="dim" font-size="10">Projects: my-app, api-server</text>
</svg>
