<svg xmlns="http://www.w3.org/2000/svg" viewBox="0 0 1200 700" font-family="'Cascadia Code','Fira Code','JetBrains Mono','Consolas',monospace">
  <defs>
    <style>
      .bg { fill: #1e1e1e; }
      .panel { fill: #252526; }
      .chrome-bg { fill: #202124; }
      .chrome-addr { fill: #35363a; }
      .border { stroke: #3c3c3c; stroke-width: 1; fill: none; }
    </style>
    <clipPath id="roundClip">
      <rect width="1200" height="700" rx="8"/>
    </clipPath>
  </defs>

  <!-- Background -->
  <rect width="1200" height="700" class="bg" rx="8"/>
  <g clip-path="url(#roundClip)">

  <!-- ══════════ Browser Chrome ══════════ -->
  <rect width="1200" height="25" class="chrome-bg"/>
  <rect x="0" y="17" width="1200" height="8" class="chrome-bg"/>
  <!-- Active tab -->
  <rect x="8" y="4" width="160" height="21" rx="6" fill="#1e1e1e"/>
  <text x="30" y="18" font-size="10" fill="#d4d4d4">monitor-agent</text>
  <text x="152" y="18" font-size="10" fill="#858585">×</text>
  <text x="180" y="18" font-size="12" fill="#858585">+</text>

  <!-- Address bar -->
  <rect x="0" y="25" width="1200" height="23" class="chrome-addr"/>
  <rect x="200" y="29" width="500" height="15" rx="7" fill="#292b2e"/>
  <text x="450" y="40" text-anchor="middle" font-size="10" fill="#d4d4d4">localhost:3456</text>

  <!-- ══════════ Header Bar ══════════ -->
  <rect x="0" y="48" width="1200" height="30" class="panel"/>
  <line x1="0" y1="78" x2="1200" y2="78" stroke="#3c3c3c"/>
  <text x="16" y="68" font-size="14" font-weight="600" fill="#569cd6">monitor-agent</text>
  <!-- Stats -->
  <text x="780" y="68" font-size="11" fill="#858585">실행중:</text>
  <text x="830" y="68" font-size="11" fill="#dcdcaa"> 2</text>
  <text x="870" y="68" font-size="11" fill="#858585">완료:</text>
  <text x="910" y="68" font-size="11" fill="#6a9955"> 2,472</text>
  <text x="970" y="68" font-size="11" fill="#858585">에러:</text>
  <text x="1010" y="68" font-size="11" fill="#f44747"> 188</text>
  <text x="1060" y="68" font-size="11" fill="#858585">경과:</text>
  <text x="1100" y="68" font-size="11" fill="#858585"> 150h 30m</text>

  <!-- ══════════ Activity Feed Panel (Top ~40%) ══════════ -->
  <rect x="0" y="78" width="1200" height="292" class="bg"/>

  <!-- Section Header: 활동 피드 -->
  <rect x="0" y="78" width="1200" height="20" class="panel"/>
  <line x1="0" y1="98" x2="1200" y2="98" stroke="#3c3c3c"/>
  <text x="14" y="93" font-size="11" fill="#858585" letter-spacing="0.5">활동 피드</text>

  <!-- Search Bar -->
  <rect x="14" y="106" width="1172" height="26" rx="4" fill="#3c3c3c"/>
  <rect x="15" y="107" width="1170" height="24" rx="3" fill="#1e1e1e"/>
  <text x="28" y="123" font-size="10" fill="#585858">검색 (프롬프트, 파일명, 명령어...)</text>

  <!-- Session Filter Buttons -->
  <rect x="14" y="140" width="50" height="20" rx="10" fill="#1a3a5c"/>
  <text x="39" y="154" text-anchor="middle" font-size="10" fill="#569cd6">MAIN</text>
  <rect x="72" y="140" width="58" height="20" rx="10" fill="#2d1a3c"/>
  <text x="101" y="154" text-anchor="middle" font-size="10" fill="#c586c0">웹앱</text>
  <rect x="138" y="140" width="70" height="20" rx="10" fill="#1a3c2d"/>
  <text x="173" y="154" text-anchor="middle" font-size="10" fill="#4ec9b0">API서버</text>

  <!-- ── Prompt Group 1: Expanded ── -->
  <!-- Group header background -->
  <rect x="8" y="170" width="1184" height="22" rx="3" fill="#2a2d2e"/>
  <!-- Expand arrow -->
  <text x="16" y="185" font-size="10" fill="#858585">▼</text>
  <!-- Session tag: MAIN -->
  <rect x="30" y="173" width="38" height="16" rx="8" fill="#1a3a5c"/>
  <text x="49" y="185" text-anchor="middle" font-size="9" fill="#569cd6">MAIN</text>
  <!-- Timestamp -->
  <text x="76" y="185" font-size="10" fill="#858585">10:30:42</text>
  <!-- Prompt text -->
  <text x="140" y="185" font-size="10" fill="#d4d4d4">글씨 크기를 전체적으로 10% 키워줘.</text>
  <!-- Tool count badge -->
  <rect x="1160" y="173" width="22" height="16" rx="8" fill="#3c3c3c"/>
  <text x="1171" y="185" text-anchor="middle" font-size="9" fill="#d4d4d4">5</text>

  <!-- Sub-item 1: Read tool -->
  <text x="46" y="207" font-size="10" fill="#858585">17:19:25</text>
  <text x="108" y="207" font-size="10" fill="#6a9955">✓</text>
  <text x="120" y="207" font-size="10" fill="#4ec9b0">Read</text>
  <text x="160" y="207" font-size="10" fill="#d4d4d4">monitor-agent/dashboard.html</text>
  <text x="410" y="207" font-size="10" fill="#858585">17:19:36</text>
  <text x="480" y="207" font-size="10" fill="#c586c0">95ms</text>

  <!-- Sub-item 2: Edit tool -->
  <text x="46" y="224" font-size="10" fill="#858585">17:19:37</text>
  <text x="108" y="224" font-size="10" fill="#6a9955">✓</text>
  <text x="120" y="224" font-size="10" fill="#4ec9b0">Edit</text>
  <text x="160" y="224" font-size="10" fill="#d4d4d4">monitor-agent/dashboard.html</text>
  <text x="410" y="224" font-size="10" fill="#858585">17:19:48</text>
  <text x="480" y="224" font-size="10" fill="#c586c0">210ms</text>

  <!-- Sub-item 3: Read tool -->
  <text x="46" y="241" font-size="10" fill="#858585">17:19:49</text>
  <text x="108" y="241" font-size="10" fill="#6a9955">✓</text>
  <text x="120" y="241" font-size="10" fill="#4ec9b0">Read</text>
  <text x="160" y="241" font-size="10" fill="#d4d4d4">monitor-agent/server.mjs</text>
  <text x="410" y="241" font-size="10" fill="#858585">17:19:50</text>
  <text x="480" y="241" font-size="10" fill="#c586c0">42ms</text>

  <!-- Sub-item 4: Edit tool -->
  <text x="46" y="258" font-size="10" fill="#858585">17:20:01</text>
  <text x="108" y="258" font-size="10" fill="#6a9955">✓</text>
  <text x="120" y="258" font-size="10" fill="#4ec9b0">Edit</text>
  <text x="160" y="258" font-size="10" fill="#d4d4d4">monitor-agent/dashboard.html</text>
  <text x="410" y="258" font-size="10" fill="#858585">17:20:14</text>
  <text x="480" y="258" font-size="10" fill="#c586c0">185ms</text>

  <!-- Sub-item 5: Assistant text response (green dot) -->
  <circle cx="52" cy="274" r="4" fill="#6a9955"/>
  <text x="64" y="278" font-size="10" fill="#6a9955">완료. 활동 피드 목록 전체 10% 커짐.</text>

  <!-- ── Prompt Group 2: Collapsed ── -->
  <rect x="8" y="292" width="1184" height="22" rx="3" fill="#2a2d2e"/>
  <text x="16" y="307" font-size="10" fill="#858585">▶</text>
  <rect x="30" y="295" width="38" height="16" rx="8" fill="#1a3a5c"/>
  <text x="49" y="307" text-anchor="middle" font-size="9" fill="#569cd6">MAIN</text>
  <text x="76" y="307" font-size="10" fill="#858585">10:15:03</text>
  <text x="140" y="307" font-size="10" fill="#d4d4d4">하단 프로젝트 섹션 제거하고 이벤트 수 표시해줘.</text>
  <rect x="1160" y="295" width="22" height="16" rx="8" fill="#3c3c3c"/>
  <text x="1171" y="307" text-anchor="middle" font-size="9" fill="#d4d4d4">3</text>

  <!-- ── Prompt Group 3: Collapsed ── -->
  <rect x="8" y="322" width="1184" height="22" rx="3" fill="#2a2d2e"/>
  <text x="16" y="337" font-size="10" fill="#858585">▶</text>
  <rect x="30" y="325" width="58" height="16" rx="8" fill="#1a3c2d"/>
  <text x="59" y="337" text-anchor="middle" font-size="9" fill="#4ec9b0">API서버</text>
  <text x="96" y="337" font-size="10" fill="#858585">09:45:11</text>
  <text x="160" y="337" font-size="10" fill="#d4d4d4">주문 API 상태 매핑 수정해줘.</text>
  <rect x="1154" y="325" width="28" height="16" rx="8" fill="#3c3c3c"/>
  <text x="1168" y="337" text-anchor="middle" font-size="9" fill="#d4d4d4">12</text>

  <!-- Activity scrollbar track -->
  <rect x="1193" y="170" width="4" height="180" rx="2" fill="#2a2a2a"/>
  <rect x="1193" y="170" width="4" height="60" rx="2" fill="#555"/>

  <!-- ══════════ Resize Handle ══════════ -->
  <line x1="0" y1="370" x2="1200" y2="370" stroke="#569cd6" stroke-width="2" opacity="0.6"/>
  <rect x="580" y="367" width="40" height="6" rx="3" fill="#569cd6" opacity="0.5"/>

  <!-- ══════════ Code Viewer (Middle ~35%) ══════════ -->
  <rect x="0" y="376" width="1200" height="196" class="bg"/>

  <!-- Code Header -->
  <rect x="0" y="376" width="1200" height="18" class="panel"/>
  <line x1="0" y1="394" x2="1200" y2="394" stroke="#3c3c3c"/>
  <text x="14" y="390" font-size="10" fill="#569cd6" font-weight="500">monitor-agent/dashboard.html</text>
  <text x="1186" y="390" font-size="10" fill="#858585" text-anchor="end">1007줄</text>

  <!-- Code Content: HTML/CSS with syntax highlighting -->
  <!-- Line numbers gutter -->
  <rect x="0" y="394" width="36" height="178" fill="#1a1a1a"/>

  <!-- Line 1 -->
  <text x="30" y="410" font-size="10" fill="#585858" text-anchor="end">847</text>
  <text x="42" y="410" font-size="10" fill="#d4d4d4"><tspan fill="#858585">&lt;!</tspan><tspan fill="#569cd6">DOCTYPE</tspan> <tspan fill="#9cdcfe">html</tspan><tspan fill="#858585">&gt;</tspan></text>
  <!-- Line 2 -->
  <text x="30" y="426" font-size="10" fill="#585858" text-anchor="end">848</text>
  <text x="42" y="426" font-size="10" fill="#858585">&lt;<tspan fill="#569cd6">html</tspan> <tspan fill="#9cdcfe">lang</tspan>=<tspan fill="#ce9178">"ko"</tspan>&gt;</text>
  <!-- Line 3 -->
  <text x="30" y="442" font-size="10" fill="#585858" text-anchor="end">849</text>
  <text x="42" y="442" font-size="10" fill="#858585">&lt;<tspan fill="#569cd6">head</tspan>&gt;</text>
  <!-- Line 4 -->
  <text x="30" y="458" font-size="10" fill="#585858" text-anchor="end">850</text>
  <text x="52" y="458" font-size="10" fill="#858585">&lt;<tspan fill="#569cd6">meta</tspan> <tspan fill="#9cdcfe">charset</tspan>=<tspan fill="#ce9178">"UTF-8"</tspan>&gt;</text>
  <!-- Line 5 -->
  <text x="30" y="474" font-size="10" fill="#585858" text-anchor="end">851</text>
  <text x="52" y="474" font-size="10" fill="#858585">&lt;<tspan fill="#569cd6">title</tspan>&gt;<tspan fill="#d4d4d4">monitor-agent</tspan>&lt;/<tspan fill="#569cd6">title</tspan>&gt;</text>
  <!-- Line 6 -->
  <text x="30" y="490" font-size="10" fill="#585858" text-anchor="end">852</text>
  <text x="52" y="490" font-size="10" fill="#858585">&lt;<tspan fill="#569cd6">style</tspan>&gt;</text>
  <!-- Line 7 -->
  <text x="30" y="506" font-size="10" fill="#585858" text-anchor="end">853</text>
  <text x="62" y="506" font-size="10" fill="#d4d4d4"><tspan fill="#d7ba7d">*</tspan> { <tspan fill="#9cdcfe">margin</tspan>: <tspan fill="#b5cea8">0</tspan>; <tspan fill="#9cdcfe">padding</tspan>: <tspan fill="#b5cea8">0</tspan>; <tspan fill="#9cdcfe">box-sizing</tspan>: <tspan fill="#ce9178">border-box</tspan>; }</text>
  <!-- Line 8 -->
  <text x="30" y="522" font-size="10" fill="#585858" text-anchor="end">854</text>
  <text x="62" y="522" font-size="10" fill="#d4d4d4"><tspan fill="#d7ba7d">body</tspan> {</text>
  <!-- Line 9 -->
  <text x="30" y="538" font-size="10" fill="#585858" text-anchor="end">855</text>
  <text x="72" y="538" font-size="10" fill="#d4d4d4"><tspan fill="#9cdcfe">background</tspan>: <tspan fill="#ce9178">#1e1e1e</tspan>;</text>
  <!-- Line 10 -->
  <text x="30" y="554" font-size="10" fill="#585858" text-anchor="end">856</text>
  <text x="72" y="554" font-size="10" fill="#d4d4d4"><tspan fill="#9cdcfe">color</tspan>: <tspan fill="#ce9178">#d4d4d4</tspan>;</text>
  <!-- Line 11 -->
  <text x="30" y="570" font-size="10" fill="#585858" text-anchor="end">857</text>
  <text x="72" y="570" font-size="10" fill="#d4d4d4"><tspan fill="#9cdcfe">font-family</tspan>: <tspan fill="#ce9178">'Consolas'</tspan>, <tspan fill="#ce9178">monospace</tspan>;</text>

  <!-- ══════════ Diff Viewer (Bottom ~25%) ══════════ -->
  <line x1="0" y1="572" x2="1200" y2="572" stroke="#3c3c3c"/>

  <!-- Diff Header -->
  <rect x="0" y="572" width="1200" height="18" class="panel"/>
  <line x1="0" y1="590" x2="1200" y2="590" stroke="#3c3c3c"/>
  <text x="14" y="586" font-size="10" fill="#569cd6" font-weight="500">Edit: monitor-agent/dashboard.html</text>
  <text x="1186" y="586" font-size="10" fill="#858585" text-anchor="end">17:20:14</text>

  <!-- Diff Content -->
  <!-- Deleted line 1 (red) -->
  <rect x="0" y="592" width="1200" height="16" fill="#2d1515"/>
  <text x="14" y="604" font-size="10" fill="#f44747">-  font-size: 11px;</text>
  <!-- Added line 1 (green) -->
  <rect x="0" y="608" width="1200" height="16" fill="#1d2d1d"/>
  <text x="14" y="620" font-size="10" fill="#6a9955">+  font-size: 12.1px;</text>
  <!-- Separator -->
  <line x1="14" y1="630" x2="1186" y2="630" stroke="#3c3c3c" stroke-dasharray="4"/>
  <!-- Deleted line 2 (red) -->
  <rect x="0" y="634" width="1200" height="16" fill="#2d1515"/>
  <text x="14" y="646" font-size="10" fill="#f44747">-  padding: 6px 10px;</text>
  <!-- Added line 2 (green) -->
  <rect x="0" y="650" width="1200" height="16" fill="#1d2d1d"/>
  <text x="14" y="662" font-size="10" fill="#6a9955">+  padding: 6.6px 11px;</text>

  <!-- ══════════ Footer ══════════ -->
  <rect x="0" y="672" width="1200" height="28" class="panel"/>
  <line x1="0" y1="672" x2="1200" y2="672" stroke="#3c3c3c"/>
  <!-- Connected status -->
  <circle cx="16" cy="688" r="4" fill="#6a9955"/>
  <text x="26" y="692" font-size="10" fill="#858585">연결됨</text>
  <!-- Event count -->
  <text x="1186" y="692" font-size="10" fill="#858585" text-anchor="end">이벤트: 2,662개</text>

  </g>
</svg>
