<svg xmlns="http://www.w3.org/2000/svg" viewBox="0 0 1200 700" font-family="'Cascadia Code','Fira Code','JetBrains Mono','Consolas',monospace">

  <!-- Background -->
  <rect width="1200" height="700" fill="#1e1e1e" rx="8"/>
  <g>

  <!-- ══════════ Browser Chrome ══════════ -->
  <rect width="1200" height="25" fill="#202124"/>
  <rect x="0" y="17" width="1200" height="8" fill="#202124"/>
  <!-- Active tab -->
  <rect x="8" y="4" width="160" height="21" rx="6" fill="#1e1e1e"/>
  <text x="30" y="18" font-size="10" fill="#d4d4d4">monitor-agent</text>
  <text x="152" y="18" font-size="10" fill="#858585">×</text>
  <text x="180" y="18" font-size="12" fill="#858585">+</text>

  <!-- Address bar -->
  <rect x="0" y="25" width="1200" height="23" fill="#35363a"/>
  <rect x="200" y="29" width="500" height="15" rx="7" fill="#292b2e"/>
  <text x="450" y="40" text-anchor="middle" font-size="10" fill="#d4d4d4">localhost:3456</text>

  <!-- ══════════ Header Bar ══════════ -->
  <rect x="0" y="48" width="1200" height="30" fill="#252526"/>
  <line x1="0" y1="78" x2="1200" y2="78" stroke="#3c3c3c"/>
  <text x="16" y="68" font-size="14" font-weight="600" fill="#569cd6">monitor-agent</text>
  <!-- Stats -->
  <text x="720" y="68" font-size="11" fill="#858585">실행중:</text>
  <text x="775" y="68" font-size="11" fill="#dcdcaa"> 2</text>
  <text x="810" y="68" font-size="11" fill="#858585">완료:</text>
  <text x="850" y="68" font-size="11" fill="#6a9955"> 847</text>
  <text x="900" y="68" font-size="11" fill="#858585">에러:</text>
  <text x="942" y="68" font-size="11" fill="#f44747"> 3</text>
  <text x="990" y="68" font-size="11" fill="#858585">경과:</text>
  <text x="1035" y="68" font-size="11" fill="#858585"> 2h 15m</text>

  <!-- ══════════ Feeds Panel (Top ~55%) ══════════ -->
  <rect x="0" y="78" width="1200" height="340" fill="#1e1e1e"/>

  <!-- Section Header: FEEDS -->
  <rect x="0" y="78" width="1200" height="20" fill="#252526"/>
  <line x1="0" y1="98" x2="1200" y2="98" stroke="#3c3c3c"/>
  <text x="14" y="93" font-size="11" fill="#4ec9b0" font-weight="600" letter-spacing="0.5">FEEDS</text>

  <!-- Search Bar -->
  <rect x="14" y="106" width="1172" height="26" rx="4" fill="#3c3c3c"/>
  <rect x="15" y="107" width="1170" height="24" rx="3" fill="#1e1e1e"/>
  <text x="28" y="123" font-size="10" fill="#585858">검색 (프롬프트, 파일명, 명령어...)</text>

  <!-- Session Filter Buttons -->
  <!-- "All" toggle button -->
  <rect x="14" y="140" width="42" height="20" rx="10" fill="#333"/>
  <text x="22" y="154" font-size="10" fill="#d4d4d4">▶ All</text>
  <!-- Divider -->
  <line x1="64" y1="142" x2="64" y2="158" stroke="#3c3c3c" stroke-width="1"/>
  <!-- MAIN -->
  <rect x="74" y="140" width="50" height="20" rx="10" fill="#1a3a5c"/>
  <text x="99" y="154" text-anchor="middle" font-size="10" fill="#569cd6">MAIN</text>
  <!-- 웹앱 -->
  <rect x="132" y="140" width="58" height="20" rx="10" fill="#2d1a3c"/>
  <text x="161" y="154" text-anchor="middle" font-size="10" fill="#c586c0">웹앱</text>
  <!-- API서버 -->
  <rect x="198" y="140" width="70" height="20" rx="10" fill="#1a3c2d"/>
  <text x="233" y="154" text-anchor="middle" font-size="10" fill="#4ec9b0">API서버</text>

  <!-- ── Prompt Group 1: Expanded ── -->
  <rect x="8" y="170" width="1184" height="22" rx="3" fill="#2a2d2e"/>
  <!-- Expand arrow -->
  <text x="16" y="185" font-size="10" fill="#858585">▼</text>
  <!-- Session tag: MAIN -->
  <rect x="30" y="173" width="38" height="16" rx="8" fill="#1a3a5c"/>
  <text x="49" y="185" text-anchor="middle" font-size="9" fill="#569cd6">MAIN</text>
  <!-- Timestamp -->
  <text x="76" y="185" font-size="10" fill="#858585">10:30:42</text>
  <!-- Prompt text -->
  <text x="140" y="185" font-size="10" fill="#d4d4d4">글씨 크기를 전체적으로 10% 키워줘.</text>
  <!-- Tool count badge -->
  <rect x="1160" y="173" width="22" height="16" rx="8" fill="#3c3c3c"/>
  <text x="1171" y="185" text-anchor="middle" font-size="9" fill="#d4d4d4">5</text>

  <!-- Sub-item 1: Read tool -->
  <text x="46" y="207" font-size="10" fill="#858585">10:30:25</text>
  <text x="108" y="207" font-size="10" fill="#6a9955">✓</text>
  <text x="120" y="207" font-size="10" fill="#4ec9b0">Read</text>
  <text x="160" y="207" font-size="10" fill="#d4d4d4">dashboard/style.css</text>
  <text x="340" y="207" font-size="10" fill="#858585">10:30:36</text>
  <text x="410" y="207" font-size="10" fill="#c586c0">95ms</text>

  <!-- Sub-item 2: Edit tool -->
  <text x="46" y="224" font-size="10" fill="#858585">10:30:37</text>
  <text x="108" y="224" font-size="10" fill="#6a9955">✓</text>
  <text x="120" y="224" font-size="10" fill="#4ec9b0">Edit</text>
  <text x="160" y="224" font-size="10" fill="#d4d4d4">dashboard/style.css</text>
  <text x="340" y="224" font-size="10" fill="#858585">10:30:48</text>
  <text x="410" y="224" font-size="10" fill="#c586c0">210ms</text>

  <!-- Sub-item 3: Read tool -->
  <text x="46" y="241" font-size="10" fill="#858585">10:30:49</text>
  <text x="108" y="241" font-size="10" fill="#6a9955">✓</text>
  <text x="120" y="241" font-size="10" fill="#4ec9b0">Read</text>
  <text x="160" y="241" font-size="10" fill="#d4d4d4">dashboard/viewer.js</text>
  <text x="340" y="241" font-size="10" fill="#858585">10:30:50</text>
  <text x="410" y="241" font-size="10" fill="#c586c0">42ms</text>

  <!-- Sub-item 4: Edit tool -->
  <text x="46" y="258" font-size="10" fill="#858585">10:31:01</text>
  <text x="108" y="258" font-size="10" fill="#6a9955">✓</text>
  <text x="120" y="258" font-size="10" fill="#4ec9b0">Edit</text>
  <text x="160" y="258" font-size="10" fill="#d4d4d4">dashboard/viewer.js</text>
  <text x="340" y="258" font-size="10" fill="#858585">10:31:14</text>
  <text x="410" y="258" font-size="10" fill="#c586c0">185ms</text>

  <!-- Sub-item 5: Assistant text response (green dot) -->
  <circle cx="52" cy="274" r="4" fill="#6a9955"/>
  <text x="64" y="278" font-size="10" fill="#6a9955">완료. 목록 전체 크기 10% 커짐.</text>

  <!-- ── Prompt Group 2: Collapsed ── -->
  <rect x="8" y="292" width="1184" height="22" rx="3" fill="#2a2d2e"/>
  <text x="16" y="307" font-size="10" fill="#858585">▶</text>
  <rect x="30" y="295" width="38" height="16" rx="8" fill="#1a3a5c"/>
  <text x="49" y="307" text-anchor="middle" font-size="9" fill="#569cd6">MAIN</text>
  <text x="76" y="307" font-size="10" fill="#858585">10:15:03</text>
  <text x="140" y="307" font-size="10" fill="#d4d4d4">하단 섹션 제거하고 이벤트 수 표시해줘</text>
  <rect x="1160" y="295" width="22" height="16" rx="8" fill="#3c3c3c"/>
  <text x="1171" y="307" text-anchor="middle" font-size="9" fill="#d4d4d4">3</text>

  <!-- ── Prompt Group 3: Collapsed ── -->
  <rect x="8" y="322" width="1184" height="22" rx="3" fill="#2a2d2e"/>
  <text x="16" y="337" font-size="10" fill="#858585">▶</text>
  <rect x="30" y="325" width="58" height="16" rx="8" fill="#1a3c2d"/>
  <text x="59" y="337" text-anchor="middle" font-size="9" fill="#4ec9b0">API서버</text>
  <text x="96" y="337" font-size="10" fill="#858585">09:45:11</text>
  <text x="160" y="337" font-size="10" fill="#d4d4d4">주문 API 상태 매핑 수정해줘</text>
  <rect x="1154" y="325" width="28" height="16" rx="8" fill="#3c3c3c"/>
  <text x="1168" y="337" text-anchor="middle" font-size="9" fill="#d4d4d4">12</text>

  <!-- Activity scrollbar track -->
  <rect x="1193" y="170" width="4" height="180" rx="2" fill="#2a2a2a"/>
  <rect x="1193" y="170" width="4" height="60" rx="2" fill="#555"/>

  <!-- ══════════ Resize Handle ══════════ -->
  <line x1="0" y1="418" x2="1200" y2="418" stroke="#569cd6" stroke-width="2" opacity="0.6"/>
  <rect x="580" y="415" width="40" height="6" rx="3" fill="#569cd6" opacity="0.5"/>

  <!-- ══════════ Bottom Split: Code Viewer (left) | Diff Viewer (right) ══════════ -->
  <rect x="0" y="424" width="1200" height="248" fill="#1e1e1e"/>

  <!-- ── Code Viewer (Left Half) ── -->
  <rect x="0" y="424" width="600" height="248" fill="#1e1e1e"/>

  <!-- Code Header -->
  <rect x="0" y="424" width="600" height="18" fill="#252526"/>
  <line x1="0" y1="442" x2="600" y2="442" stroke="#3c3c3c"/>
  <text x="14" y="438" font-size="10" fill="#569cd6" font-weight="500">dashboard/style.css</text>
  <text x="586" y="438" font-size="10" fill="#858585" text-anchor="end">248 lines</text>

  <!-- Code Content: CSS with syntax highlighting -->
  <!-- Line numbers gutter -->
  <rect x="0" y="442" width="36" height="230" fill="#1a1a1a"/>

  <!-- Line 1: .activity-panel { -->
  <text x="30" y="458" font-size="10" fill="#585858" text-anchor="end">41</text>
  <text x="42" y="458" font-size="10" fill="#d4d4d4"><tspan fill="#d7ba7d">.activity-panel</tspan> {</text>
  <!-- Line 2: height: 55%; min-height: 120px; -->
  <text x="30" y="474" font-size="10" fill="#585858" text-anchor="end">42</text>
  <text x="52" y="474" font-size="10" fill="#d4d4d4"><tspan fill="#9cdcfe">height</tspan>: <tspan fill="#ce9178">55%</tspan>; <tspan fill="#9cdcfe">min-height</tspan>: <tspan fill="#ce9178">120px</tspan>;</text>
  <!-- Line 3: border-bottom: 1px solid var(--border); -->
  <text x="30" y="490" font-size="10" fill="#585858" text-anchor="end">43</text>
  <text x="52" y="490" font-size="10" fill="#d4d4d4"><tspan fill="#9cdcfe">border-bottom</tspan>: <tspan fill="#ce9178">1px</tspan> <tspan fill="#ce9178">solid</tspan> <tspan fill="#dcdcaa">var</tspan>(<tspan fill="#9cdcfe">--border</tspan>);</text>
  <!-- Line 4: display: flex; -->
  <text x="30" y="506" font-size="10" fill="#585858" text-anchor="end">44</text>
  <text x="52" y="506" font-size="10" fill="#d4d4d4"><tspan fill="#9cdcfe">display</tspan>: <tspan fill="#ce9178">flex</tspan>;</text>
  <!-- Line 5: } -->
  <text x="30" y="522" font-size="10" fill="#585858" text-anchor="end">45</text>
  <text x="42" y="522" font-size="10" fill="#d4d4d4">}</text>
  <!-- Line 6: blank -->
  <text x="30" y="538" font-size="10" fill="#585858" text-anchor="end">46</text>
  <!-- Line 7: .code-viewer { -->
  <text x="30" y="554" font-size="10" fill="#585858" text-anchor="end">47</text>
  <text x="42" y="554" font-size="10" fill="#d4d4d4"><tspan fill="#d7ba7d">.code-viewer</tspan> {</text>
  <!-- Line 8: flex: 1; -->
  <text x="30" y="570" font-size="10" fill="#585858" text-anchor="end">48</text>
  <text x="52" y="570" font-size="10" fill="#d4d4d4"><tspan fill="#9cdcfe">flex</tspan>: <tspan fill="#b5cea8">1</tspan>;</text>
  <!-- Line 9: overflow-y: auto; -->
  <text x="30" y="586" font-size="10" fill="#585858" text-anchor="end">49</text>
  <text x="52" y="586" font-size="10" fill="#d4d4d4"><tspan fill="#9cdcfe">overflow-y</tspan>: <tspan fill="#ce9178">auto</tspan>;</text>
  <!-- Line 10: } -->
  <text x="30" y="602" font-size="10" fill="#585858" text-anchor="end">50</text>
  <text x="42" y="602" font-size="10" fill="#d4d4d4">}</text>

  <!-- Code scrollbar -->
  <rect x="593" y="442" width="4" height="230" rx="2" fill="#2a2a2a"/>
  <rect x="593" y="442" width="4" height="40" rx="2" fill="#555"/>

  <!-- ── Vertical Divider between Code and Diff ── -->
  <line x1="600" y1="424" x2="600" y2="672" stroke="#3c3c3c" stroke-width="1"/>

  <!-- ── Diff Viewer (Right Half) ── -->
  <rect x="600" y="424" width="600" height="248" fill="#1e1e1e"/>

  <!-- Diff Header -->
  <rect x="600" y="424" width="600" height="18" fill="#252526"/>
  <line x1="600" y1="442" x2="1200" y2="442" stroke="#3c3c3c"/>
  <text x="614" y="438" font-size="10" fill="#569cd6" font-weight="500">Edit: dashboard/style.css</text>
  <text x="1186" y="438" font-size="10" fill="#858585" text-anchor="end">10:30:48</text>

  <!-- Diff Content -->
  <!-- Context line -->
  <text x="614" y="458" font-size="10" fill="#858585">  .activity-panel {</text>

  <!-- Deleted line (red) -->
  <rect x="600" y="462" width="600" height="16" fill="#2d1515"/>
  <text x="614" y="474" font-size="10" fill="#f44747">-   height: 35%; min-height: 120px;</text>

  <!-- Added line (green) -->
  <rect x="600" y="478" width="600" height="16" fill="#1d2d1d"/>
  <text x="614" y="490" font-size="10" fill="#6a9955">+   height: 55%; min-height: 120px;</text>

  <!-- Context lines -->
  <text x="614" y="510" font-size="10" fill="#858585">    border-bottom: 1px solid var(--border);</text>
  <text x="614" y="526" font-size="10" fill="#858585">    display: flex;</text>
  <text x="614" y="542" font-size="10" fill="#858585">    flex-direction: column;</text>
  <text x="614" y="558" font-size="10" fill="#858585">    flex-shrink: 0;</text>
  <text x="614" y="574" font-size="10" fill="#858585">  }</text>

  <!-- Diff scrollbar -->
  <rect x="1193" y="442" width="4" height="230" rx="2" fill="#2a2a2a"/>
  <rect x="1193" y="442" width="4" height="50" rx="2" fill="#555"/>

  <!-- ══════════ Footer ══════════ -->
  <rect x="0" y="672" width="1200" height="28" fill="#252526"/>
  <line x1="0" y1="672" x2="1200" y2="672" stroke="#3c3c3c"/>
  <!-- Connected status -->
  <circle cx="16" cy="688" r="4" fill="#6a9955"/>
  <text x="26" y="692" font-size="10" fill="#858585">Connected</text>
  <!-- Action count -->
  <text x="1186" y="692" font-size="10" fill="#858585" text-anchor="end">Actions: 2,662</text>

  </g>
</svg>
