<svg xmlns="http://www.w3.org/2000/svg" viewBox="0 0 1200 700" font-family="'Cascadia Code','Fira Code','JetBrains Mono','Consolas',monospace">
  <defs>
    <style>
      .bg { fill: #1e1e1e; }
      .panel { fill: #252526; }
      .chrome-bg { fill: #202124; }
      .chrome-addr { fill: #35363a; }
      .border { stroke: #3c3c3c; stroke-width: 1; fill: none; }
    </style>
  </defs>

  <!-- Background -->
  <rect width="1200" height="700" class="bg" rx="8"/>

  <!-- Chrome tab bar -->
  <rect width="1200" height="36" class="chrome-bg" rx="8"/>
  <rect y="28" width="1200" height="8" class="chrome-bg"/>
  <rect x="80" y="8" width="200" height="28" rx="8" fill="#35363a"/>
  <circle cx="96" cy="22" r="6" fill="#569cd6"/>
  <text x="112" y="26" fill="#d4d4d4" font-size="11">monitor-agent</text>
  <text x="264" y="26" fill="#858585" font-size="11">x</text>
  <circle cx="1140" cy="18" r="6" fill="#858585" opacity="0.4"/>
  <circle cx="1160" cy="18" r="6" fill="#858585" opacity="0.4"/>
  <circle cx="1180" cy="18" r="6" fill="#858585" opacity="0.4"/>

  <!-- Address bar -->
  <rect y="36" width="1200" height="30" class="chrome-bg"/>
  <rect x="80" y="42" width="1040" height="18" class="chrome-addr" rx="9"/>
  <text x="100" y="55" fill="#858585" font-size="10">localhost:3000</text>

  <!-- Header bar -->
  <rect y="66" width="1200" height="34" class="panel"/>
  <rect y="100" width="1200" height="1" fill="#3c3c3c"/>
  <text x="16" y="88" fill="#569cd6" font-size="14" font-weight="bold">monitor-agent</text>
  <text x="740" y="88" fill="#858585" font-size="11">Running:</text>
  <text x="805" y="88" fill="#4ec9b0" font-size="11" font-weight="bold">2</text>
  <text x="840" y="88" fill="#858585" font-size="11">Done:</text>
  <text x="882" y="88" fill="#d4d4d4" font-size="11" font-weight="bold">847</text>
  <text x="930" y="88" fill="#858585" font-size="11">Errors:</text>
  <text x="986" y="88" fill="#f44747" font-size="11" font-weight="bold">3</text>

  <!-- Feeds section -->
  <rect y="101" width="1200" height="20" class="panel"/>
  <rect y="121" width="1200" height="1" fill="#3c3c3c"/>
  <text x="14" y="116" fill="#4ec9b0" font-size="11" font-weight="bold" letter-spacing="0.5">FEEDS</text>

  <!-- Search bar -->
  <rect x="14" y="128" width="1172" height="24" rx="4" fill="#3c3c3c"/>
  <rect x="15" y="129" width="1170" height="22" rx="3" class="bg"/>
  <text x="28" y="144" fill="#585858" font-size="10">Search (prompts, files, commands...)</text>

  <!-- Session filter buttons -->
  <rect x="14" y="160" width="44" height="20" rx="10" fill="#333"/>
  <text x="22" y="174" fill="#d4d4d4" font-size="10">&#9654; All</text>
  <line x1="66" y1="162" x2="66" y2="178" stroke="#3c3c3c"/>
  <rect x="76" y="160" width="50" height="20" rx="10" fill="#1a3a5c"/>
  <text x="101" y="174" text-anchor="middle" fill="#569cd6" font-size="10">MAIN</text>
  <rect x="134" y="160" width="70" height="20" rx="10" fill="#2d1a3c"/>
  <text x="169" y="174" text-anchor="middle" fill="#c586c0" font-size="10">WEB-APP</text>
  <rect x="212" y="160" width="90" height="20" rx="10" fill="#1a3c2d"/>
  <text x="257" y="174" text-anchor="middle" fill="#4ec9b0" font-size="10">API-SERVER</text>

  <!-- Expanded prompt group -->
  <rect x="8" y="190" width="1184" height="22" rx="3" fill="#2a2d2e"/>
  <text x="16" y="205" fill="#858585" font-size="10">&#9660;</text>
  <rect x="32" y="193" width="38" height="16" rx="8" fill="#1a3a5c"/>
  <text x="51" y="205" text-anchor="middle" fill="#569cd6" font-size="9">MAIN</text>
  <text x="78" y="205" fill="#858585" font-size="10">10:30</text>
  <text x="126" y="205" fill="#d4d4d4" font-size="10">Increase the font size by 10% across all panels.</text>
  <rect x="1158" y="193" width="24" height="16" rx="8" fill="#3c3c3c"/>
  <text x="1170" y="205" text-anchor="middle" fill="#d4d4d4" font-size="9">5</text>

  <!-- Tool sub-items -->
  <text x="48" y="224" fill="#4ec9b0" font-size="10">&#10003;</text>
  <text x="62" y="224" fill="#858585" font-size="10">Read dashboard/style.css</text>
  <text x="48" y="240" fill="#4ec9b0" font-size="10">&#10003;</text>
  <text x="62" y="240" fill="#858585" font-size="10">Edit dashboard/style.css (12 changes)</text>
  <text x="48" y="256" fill="#4ec9b0" font-size="10">&#10003;</text>
  <text x="62" y="256" fill="#858585" font-size="10">Read dashboard/viewer.js</text>
  <text x="48" y="272" fill="#4ec9b0" font-size="10">&#10003;</text>
  <text x="62" y="272" fill="#858585" font-size="10">Edit dashboard/viewer.js</text>

  <!-- Assistant response -->
  <circle cx="54" cy="288" r="4" fill="#6a9955"/>
  <text x="66" y="292" fill="#6a9955" font-size="10">Done. All panel font sizes scaled up by 10%.</text>

  <!-- Collapsed prompt group 2 -->
  <rect x="8" y="304" width="1184" height="22" rx="3" fill="#2a2d2e"/>
  <text x="16" y="319" fill="#858585" font-size="10">&#9654;</text>
  <rect x="32" y="307" width="38" height="16" rx="8" fill="#1a3a5c"/>
  <text x="51" y="319" text-anchor="middle" fill="#569cd6" font-size="9">MAIN</text>
  <text x="78" y="319" fill="#858585" font-size="10">10:15</text>
  <text x="126" y="319" fill="#d4d4d4" font-size="10">Add dark mode toggle to the header component.</text>
  <rect x="1158" y="307" width="24" height="16" rx="8" fill="#3c3c3c"/>
  <text x="1170" y="319" text-anchor="middle" fill="#d4d4d4" font-size="9">3</text>

  <!-- Collapsed prompt group 3 -->
  <rect x="8" y="334" width="1184" height="22" rx="3" fill="#2a2d2e"/>
  <text x="16" y="349" fill="#858585" font-size="10">&#9654;</text>
  <rect x="32" y="337" width="80" height="16" rx="8" fill="#1a3c2d"/>
  <text x="72" y="349" text-anchor="middle" fill="#4ec9b0" font-size="9">API-SERVER</text>
  <text x="120" y="349" fill="#858585" font-size="10">09:45</text>
  <text x="168" y="349" fill="#d4d4d4" font-size="10">Refactor auth middleware for JWT validation.</text>
  <rect x="1152" y="337" width="30" height="16" rx="8" fill="#3c3c3c"/>
  <text x="1167" y="349" text-anchor="middle" fill="#d4d4d4" font-size="9">12</text>

  <!-- Resize handle -->
  <line x1="0" y1="380" x2="1200" y2="380" stroke="#569cd6" stroke-width="2" opacity="0.6"/>
  <rect x="580" y="377" width="40" height="6" rx="3" fill="#569cd6" opacity="0.5"/>

  <!-- Code Viewer (left) -->
  <rect y="386" width="599" height="280" class="bg"/>
  <rect y="386" width="599" height="18" class="panel"/>
  <line x1="0" y1="404" x2="599" y2="404" stroke="#3c3c3c"/>
  <text x="14" y="399" fill="#569cd6" font-size="10" font-weight="bold">Code Viewer</text>
  <text x="130" y="399" fill="#858585" font-size="10">style.css</text>
  <text x="300" y="399" fill="#858585" font-size="10">248 lines</text>

  <!-- Line number gutter -->
  <rect y="404" width="36" height="262" fill="#1a1a1a"/>

  <!-- Code lines with syntax colors -->
  <text x="30" y="420" text-anchor="end" fill="#585858" font-size="10">14</text>
  <text x="42" y="420" font-size="10"><tspan fill="#d7ba7d">.feed-panel</tspan><tspan fill="#d4d4d4"> {</tspan></text>

  <text x="30" y="436" text-anchor="end" fill="#585858" font-size="10">15</text>
  <text x="52" y="436" font-size="10"><tspan fill="#9cdcfe">font-size</tspan><tspan fill="#d4d4d4">: </tspan><tspan fill="#b5cea8">14</tspan><tspan fill="#ce9178">px</tspan><tspan fill="#d4d4d4">;</tspan></text>

  <text x="30" y="452" text-anchor="end" fill="#585858" font-size="10">16</text>
  <text x="52" y="452" font-size="10"><tspan fill="#9cdcfe">line-height</tspan><tspan fill="#d4d4d4">: </tspan><tspan fill="#b5cea8">1.6</tspan><tspan fill="#d4d4d4">;</tspan></text>

  <text x="30" y="468" text-anchor="end" fill="#585858" font-size="10">17</text>
  <text x="52" y="468" font-size="10"><tspan fill="#9cdcfe">color</tspan><tspan fill="#d4d4d4">: </tspan><tspan fill="#ce9178">#d4d4d4</tspan><tspan fill="#d4d4d4">;</tspan></text>

  <text x="30" y="484" text-anchor="end" fill="#585858" font-size="10">18</text>
  <text x="52" y="484" font-size="10"><tspan fill="#9cdcfe">padding</tspan><tspan fill="#d4d4d4">: </tspan><tspan fill="#b5cea8">12</tspan><tspan fill="#ce9178">px</tspan><tspan fill="#d4d4d4">;</tspan></text>

  <text x="30" y="500" text-anchor="end" fill="#585858" font-size="10">19</text>
  <text x="42" y="500" font-size="10"><tspan fill="#d7ba7d">}</tspan></text>

  <text x="30" y="516" text-anchor="end" fill="#585858" font-size="10">20</text>

  <text x="30" y="532" text-anchor="end" fill="#585858" font-size="10">21</text>
  <text x="42" y="532" font-size="10"><tspan fill="#d7ba7d">.header</tspan><tspan fill="#d4d4d4"> {</tspan></text>

  <text x="30" y="548" text-anchor="end" fill="#585858" font-size="10">22</text>
  <text x="52" y="548" font-size="10"><tspan fill="#9cdcfe">display</tspan><tspan fill="#d4d4d4">: </tspan><tspan fill="#ce9178">flex</tspan><tspan fill="#d4d4d4">;</tspan></text>

  <text x="30" y="564" text-anchor="end" fill="#585858" font-size="10">23</text>
  <text x="52" y="564" font-size="10"><tspan fill="#9cdcfe">align-items</tspan><tspan fill="#d4d4d4">: </tspan><tspan fill="#ce9178">center</tspan><tspan fill="#d4d4d4">;</tspan></text>

  <text x="30" y="580" text-anchor="end" fill="#585858" font-size="10">24</text>
  <text x="42" y="580" font-size="10"><tspan fill="#d7ba7d">}</tspan></text>

  <!-- Vertical divider -->
  <line x1="599" y1="386" x2="599" y2="666" stroke="#3c3c3c"/>

  <!-- Diff Viewer (right) -->
  <rect x="600" y="386" width="600" height="280" class="bg"/>
  <rect x="600" y="386" width="600" height="18" class="panel"/>
  <line x1="600" y1="404" x2="1200" y2="404" stroke="#3c3c3c"/>
  <text x="614" y="399" fill="#569cd6" font-size="10" font-weight="bold">Diff Viewer</text>
  <text x="740" y="399" fill="#858585" font-size="10">Edit: style.css</text>
  <text x="1186" y="399" text-anchor="end" fill="#858585" font-size="10">10:30</text>

  <!-- Diff: context -->
  <text x="614" y="420" fill="#858585" font-size="10">  .feed-panel {</text>

  <!-- Diff: deleted (red) -->
  <rect x="600" y="424" width="600" height="16" fill="#f44747" opacity="0.1"/>
  <text x="614" y="436" fill="#f44747" font-size="10">-   font-size: 12px;</text>

  <!-- Diff: added (green) -->
  <rect x="600" y="440" width="600" height="16" fill="#6a9955" opacity="0.1"/>
  <text x="614" y="452" fill="#6a9955" font-size="10">+   font-size: 14px;</text>

  <!-- Diff: context lines -->
  <text x="614" y="468" fill="#858585" font-size="10">    line-height: 1.6;</text>
  <text x="614" y="484" fill="#858585" font-size="10">    color: #d4d4d4;</text>
  <text x="614" y="500" fill="#858585" font-size="10">    padding: 12px;</text>
  <text x="614" y="516" fill="#858585" font-size="10">  }</text>

  <!-- Footer -->
  <rect y="666" width="1200" height="34" class="panel"/>
  <rect y="666" width="1200" height="1" fill="#3c3c3c"/>
  <circle cx="20" cy="684" r="4" fill="#4ec9b0"/>
  <text x="30" y="688" fill="#858585" font-size="10">Connected</text>
  <text x="1186" y="688" text-anchor="end" fill="#858585" font-size="10">Actions: 2,662</text>
</svg>