<svg xmlns="http://www.w3.org/2000/svg" viewBox="0 0 1200 720">
  <defs>
    <style>
      .bg { fill: #1d1a18; }
      .panel { fill: #252220; }
      .hover { fill: #2d2926; }
      .deep { fill: #141210; }
      .ink { fill: #e0d8cc; }
      .dim { fill: #9a8d82; }
      .muted { fill: #5c524a; }
      .accent { fill: #c0524b; }
      .mono { font-family: 'Cascadia Code','Fira Code','Consolas',monospace; }
      .serif { font-family: 'Fraunces',Georgia,serif; font-style: italic; }
      .hand { font-family: 'Caveat','Comic Sans MS',cursive; }
      .ui { font-family: system-ui,-apple-system,sans-serif; }
    </style>
    <filter id="ballShadow"><feDropShadow dx="0" dy="5" stdDeviation="3" flood-opacity="0.35"/></filter>
  </defs>

  <!-- Canvas -->
  <rect width="1200" height="720" class="bg" rx="8"/>

  <!-- Browser chrome -->
  <rect width="1200" height="36" fill="#141210" rx="8"/>
  <rect y="28" width="1200" height="8" fill="#141210"/>
  <rect x="80" y="8" width="240" height="28" rx="8" fill="#252220"/>
  <circle cx="96" cy="22" r="6" class="accent"/>
  <text x="112" y="26" class="ink" font-size="11">monitor-agent</text>
  <text x="304" y="28" class="dim" font-size="14">×</text>
  <circle cx="1140" cy="18" r="6" class="muted" opacity="0.5"/>
  <circle cx="1160" cy="18" r="6" class="muted" opacity="0.5"/>
  <circle cx="1180" cy="18" r="6" class="muted" opacity="0.5"/>
  <rect y="36" width="1200" height="30" fill="#141210"/>
  <rect x="80" y="42" width="1040" height="18" rx="9" fill="#2d2926"/>
  <text x="100" y="55" class="dim" font-size="10">localhost:3141</text>

  <!-- Header bar -->
  <rect y="66" width="1200" height="34" class="panel"/>
  <line x1="0" y1="100" x2="1200" y2="100" stroke="#3a332e"/>

  <!-- Wilson brand -->
  <text x="20" y="90" class="serif accent" font-size="19" font-weight="700">Wilson</text>

  <!-- Center title -->
  <text x="600" y="90" text-anchor="middle" class="serif accent" font-size="19" font-weight="700">monitor-agent</text>
  <text x="702" y="90" class="serif dim" font-size="17" font-weight="600">↔</text>

  <!-- Theme button (Dark) -->
  <rect x="1096" y="75" width="84" height="20" rx="12" fill="none" stroke="#3a332e"/>
  <text x="1138" y="89" text-anchor="middle" class="serif dim" font-size="11" font-weight="600">Dark</text>

  <!-- WILSON PANEL (420 wide, y 100-700) -->
  <rect x="0" y="100" width="420" height="600" class="panel"/>
  <line x1="420" y1="100" x2="420" y2="700" stroke="#3a332e"/>

  <!-- thinking status (hand, centered at x=210) -->
  <g transform="rotate(-1 210 138)">
    <text x="210" y="142" text-anchor="middle" class="hand" font-weight="600" font-size="28">
      <tspan fill="#c0524b">t</tspan><tspan fill="#4ec5b5">h</tspan><tspan fill="#7bc255">i</tspan><tspan fill="#c77bc7">n</tspan><tspan fill="#c0524b">k</tspan><tspan fill="#4ec5b5">i</tspan><tspan fill="#7bc255">n</tspan><tspan fill="#c77bc7">g</tspan>
    </text>
  </g>

  <!-- Wilson ball (cream volleyball, centered at x=210) -->
  <g transform="translate(138 158) scale(2.7)" filter="url(#ballShadow)">
    <circle cx="24" cy="24" r="22" fill="#f0ebe0" stroke="#d8d0c4" stroke-width="0.8"/>
    <line x1="3" y1="16" x2="45" y2="16" stroke="#ccc4b8" stroke-width="0.5"/>
    <line x1="3" y1="33" x2="45" y2="33" stroke="#ccc4b8" stroke-width="0.5"/>
    <path d="M11 14 C9 9 13 5 17 7 C19 4 22 3 25 5 C27 3 31 4 33 7 C36 5 40 9 37 14 C41 18 43 24 41 31 C39 38 33 44 24 44 C15 44 9 38 7 31 C5 24 7 18 11 14 Z" fill="#8B1A1A"/>
    <path d="M12 19 Q14 14 19 16 Q22 18 20 23 Q17 26 13 23 Q11 21 12 19 Z" fill="white" opacity="0.9"/>
    <circle cx="17" cy="18" r="2" fill="#1a1a2e"/>
    <path d="M28 16 Q33 14 36 19 Q37 22 35 24 Q31 27 28 23 Q26 19 28 16 Z" fill="white" opacity="0.9"/>
    <circle cx="33" cy="18" r="2" fill="#1a1a2e"/>
    <circle cx="24" cy="28" r="1" fill="white" opacity="0.25"/>
    <path d="M18 35 Q24 39 30 35" fill="none" stroke="white" stroke-width="1" opacity="0.35" stroke-linecap="round"/>
  </g>

  <!-- Speech bubble (centered in 420) -->
  <rect x="90" y="320" width="240" height="30" rx="4" class="hover" stroke="#3a332e"/>
  <text x="210" y="339" text-anchor="middle" class="ui ink" font-size="11">Read: dashboard.html</text>

  <!-- ─── TOOL TIMELINE ─── -->
  <line x1="0" y1="360" x2="420" y2="360" stroke="#3a332e"/>

  <!-- Header: title + badge + clear -->
  <text x="14" y="381" class="serif accent" font-size="15" font-weight="600">Tool Timeline</text>
  <rect x="335" y="368" width="40" height="14" rx="7" class="hover"/>
  <text x="355" y="379" text-anchor="middle" class="mono dim" font-size="9">3/11</text>
  <rect x="390" y="368" width="16" height="16" rx="3" fill="none" stroke="#3a332e"/>
  <text x="398" y="380" text-anchor="middle" class="dim" font-size="10">✕</text>
  <line x1="0" y1="391" x2="420" y2="391" stroke="#3a332e"/>

  <!-- Track: y=391 to y=520, 129px, 6 lanes ~21.5px -->
  <line x1="0" y1="412" x2="420" y2="412" stroke="#3a332e" opacity="0.35"/>
  <line x1="0" y1="434" x2="420" y2="434" stroke="#3a332e" opacity="0.35"/>
  <line x1="0" y1="455" x2="420" y2="455" stroke="#3a332e" opacity="0.35"/>
  <line x1="0" y1="477" x2="420" y2="477" stroke="#3a332e" opacity="0.35"/>
  <line x1="0" y1="498" x2="420" y2="498" stroke="#3a332e" opacity="0.35"/>

  <!-- Icons — log scale across 420px: now=0, -30s≈21, -1m≈42, -2m≈84, -5m≈210, -10m≈420 -->

  <!-- Lane 0 (y center 401): Read blue (running), Edit amber, Read blue, Glob cyan -->
  <g>
    <rect x="6" y="391" width="20" height="20" rx="4" fill="rgba(59,130,246,0.22)" stroke="#3b82f6" stroke-width="1.5"/>
    <path d="M11 395 h6 l3 3 v8 h-9 z" fill="none" stroke="#3b82f6" stroke-width="1.6" stroke-linejoin="round"/>
    <circle cx="16" cy="401" r="10" fill="none" stroke="#3b82f6" stroke-width="1.5" opacity="0.6">
      <animate attributeName="r" values="10;16" dur="1.2s" repeatCount="indefinite"/>
      <animate attributeName="opacity" values="0.6;0" dur="1.2s" repeatCount="indefinite"/>
    </circle>
  </g>
  <g opacity="0.9">
    <rect x="50" y="391" width="20" height="20" rx="4" fill="rgba(245,158,11,0.24)" stroke="#f59e0b" stroke-width="1.5"/>
    <path d="M56 402 l8 -8 2 2 -8 8 z" fill="none" stroke="#f59e0b" stroke-width="1.6" stroke-linejoin="round"/>
  </g>
  <g opacity="0.9">
    <rect x="100" y="391" width="20" height="20" rx="4" fill="rgba(59,130,246,0.22)" stroke="#3b82f6" stroke-width="1.5"/>
    <path d="M105 395 h6 l3 3 v8 h-9 z" fill="none" stroke="#3b82f6" stroke-width="1.6" stroke-linejoin="round"/>
  </g>
  <g opacity="0.85">
    <rect x="244" y="391" width="20" height="20" rx="4" fill="rgba(6,182,212,0.22)" stroke="#06b6d4" stroke-width="1.5"/>
    <circle cx="252" cy="400" r="4" fill="none" stroke="#06b6d4" stroke-width="1.6"/>
    <line x1="255" y1="403" x2="258" y2="406" stroke="#06b6d4" stroke-width="1.6" stroke-linecap="round"/>
  </g>

  <!-- Lane 1 (y center 423): Bash violet, Write emerald -->
  <g>
    <rect x="13" y="412" width="20" height="20" rx="4" fill="rgba(168,85,247,0.22)" stroke="#a855f7" stroke-width="1.5"/>
    <path d="M18 418 l4 4 -4 4" fill="none" stroke="#a855f7" stroke-width="1.6" stroke-linecap="round"/>
    <line x1="25" y1="426" x2="29" y2="426" stroke="#a855f7" stroke-width="1.6" stroke-linecap="round"/>
  </g>
  <g opacity="0.9">
    <rect x="71" y="412" width="20" height="20" rx="4" fill="rgba(16,185,129,0.22)" stroke="#10b981" stroke-width="1.5"/>
    <path d="M76 426 v-3 l8 -8 3 3 -8 8 z" fill="none" stroke="#10b981" stroke-width="1.6"/>
  </g>

  <!-- Lane 2 (y center 444): Read blue, Task pink, Edit amber -->
  <g>
    <rect x="25" y="434" width="20" height="20" rx="4" fill="rgba(59,130,246,0.22)" stroke="#3b82f6" stroke-width="1.5"/>
    <path d="M30 438 h6 l3 3 v8 h-9 z" fill="none" stroke="#3b82f6" stroke-width="1.6" stroke-linejoin="round"/>
  </g>
  <g opacity="0.9">
    <rect x="139" y="434" width="20" height="20" rx="4" fill="rgba(236,72,153,0.22)" stroke="#ec4899" stroke-width="1.5"/>
    <circle cx="149" cy="444" r="2.5" fill="none" stroke="#ec4899" stroke-width="1.6"/>
    <path d="M149 437 v2 M149 447 v2 M143 444 h2 M155 444 h-2" stroke="#ec4899" stroke-width="1.4" stroke-linecap="round"/>
  </g>
  <g opacity="0.85">
    <rect x="310" y="434" width="20" height="20" rx="4" fill="rgba(245,158,11,0.24)" stroke="#f59e0b" stroke-width="1.5"/>
    <path d="M316 445 l8 -8 2 2 -8 8 z" fill="none" stroke="#f59e0b" stroke-width="1.6"/>
  </g>

  <!-- Lane 3 (y center 466): Glob cyan, Bash violet -->
  <g opacity="0.9">
    <rect x="63" y="455" width="20" height="20" rx="4" fill="rgba(6,182,212,0.22)" stroke="#06b6d4" stroke-width="1.5"/>
    <circle cx="71" cy="464" r="4" fill="none" stroke="#06b6d4" stroke-width="1.6"/>
    <line x1="74" y1="467" x2="77" y2="470" stroke="#06b6d4" stroke-width="1.6" stroke-linecap="round"/>
  </g>
  <g opacity="0.85">
    <rect x="185" y="455" width="20" height="20" rx="4" fill="rgba(168,85,247,0.22)" stroke="#a855f7" stroke-width="1.5"/>
    <path d="M190 461 l4 4 -4 4" fill="none" stroke="#a855f7" stroke-width="1.6" stroke-linecap="round"/>
    <line x1="197" y1="469" x2="201" y2="469" stroke="#a855f7" stroke-width="1.6" stroke-linecap="round"/>
  </g>

  <!-- Lane 4 (y center 487): Bash violet, Web indigo -->
  <g>
    <rect x="34" y="477" width="20" height="20" rx="4" fill="rgba(168,85,247,0.22)" stroke="#a855f7" stroke-width="1.5"/>
    <path d="M39 483 l4 4 -4 4" fill="none" stroke="#a855f7" stroke-width="1.6" stroke-linecap="round"/>
    <line x1="46" y1="491" x2="50" y2="491" stroke="#a855f7" stroke-width="1.6" stroke-linecap="round"/>
  </g>
  <g opacity="0.9">
    <rect x="176" y="477" width="20" height="20" rx="4" fill="rgba(99,102,241,0.22)" stroke="#6366f1" stroke-width="1.5"/>
    <circle cx="186" cy="487" r="5" fill="none" stroke="#6366f1" stroke-width="1.5"/>
    <line x1="181" y1="487" x2="191" y2="487" stroke="#6366f1" stroke-width="1.3"/>
    <path d="M186 482 Q189 487 186 492 M186 482 Q183 487 186 492" fill="none" stroke="#6366f1" stroke-width="1.3"/>
  </g>

  <!-- Lane 5 (y center 508): Read blue, Write emerald -->
  <g>
    <rect x="17" y="498" width="20" height="20" rx="4" fill="rgba(59,130,246,0.22)" stroke="#3b82f6" stroke-width="1.5"/>
    <path d="M22 502 h6 l3 3 v8 h-9 z" fill="none" stroke="#3b82f6" stroke-width="1.6" stroke-linejoin="round"/>
  </g>
  <g opacity="0.9">
    <rect x="113" y="498" width="20" height="20" rx="4" fill="rgba(16,185,129,0.22)" stroke="#10b981" stroke-width="1.5"/>
    <path d="M118 512 v-3 l8 -8 3 3 -8 8 z" fill="none" stroke="#10b981" stroke-width="1.6"/>
  </g>

  <!-- Axis labels (log scale) -->
  <line x1="0" y1="520" x2="420" y2="520" stroke="#3a332e"/>
  <g class="mono dim" font-size="9">
    <text x="4" y="531">now</text>
    <text x="17" y="531">-30s</text>
    <text x="38" y="531">-1m</text>
    <text x="80" y="531">-2m</text>
    <text x="206" y="531">-5m</text>
    <text x="410" y="531" text-anchor="end">-10m</text>
  </g>

  <!-- ─── RECENT FILES ─── -->
  <line x1="0" y1="538" x2="420" y2="538" stroke="#3a332e"/>
  <text x="14" y="558" class="serif accent" font-size="16" font-weight="600">Recent Files</text>
  <line x1="0" y1="568" x2="420" y2="568" stroke="#3a332e"/>

  <g class="mono" font-size="11">
    <text x="14" y="588" class="muted">◇</text>
    <text x="32" y="588" fill="#4ec5b5">dashboard.html</text>
    <text x="320" y="588" class="serif accent" font-size="10">read</text>
    <text x="360" y="588" class="muted" font-size="9">10:30</text>

    <text x="14" y="608" class="muted">✎</text>
    <text x="32" y="608" fill="#4ec5b5">style.css</text>
    <text x="320" y="608" class="serif" fill="#f59e0b" font-size="10">edit</text>
    <text x="360" y="608" class="muted" font-size="9">10:28</text>

    <text x="14" y="628" class="muted">+</text>
    <text x="32" y="628" fill="#4ec5b5">wilson.js</text>
    <text x="320" y="628" class="serif" fill="#10b981" font-size="10">write</text>
    <text x="360" y="628" class="muted" font-size="9">10:25</text>

    <text x="14" y="648" class="muted">◇</text>
    <text x="32" y="648" fill="#4ec5b5">index.html</text>
    <text x="320" y="648" class="serif accent" font-size="10">read</text>
    <text x="360" y="648" class="muted" font-size="9">10:24</text>

    <rect x="0" y="654" width="420" height="20" class="hover"/>
    <rect x="0" y="654" width="2" height="20" class="accent"/>
    <text x="14" y="668" class="muted">✎</text>
    <text x="32" y="668" fill="#4ec5b5">server.mjs</text>
    <text x="320" y="668" class="serif" fill="#f59e0b" font-size="10">edit</text>
    <text x="360" y="668" class="muted" font-size="9">10:22</text>

    <text x="14" y="688" class="muted">◇</text>
    <text x="32" y="688" fill="#4ec5b5">feed.js</text>
    <text x="320" y="688" class="serif accent" font-size="10">read</text>
    <text x="360" y="688" class="muted" font-size="9">10:12</text>
  </g>

  <!-- ─── FEEDS SECTION (shifted to x=420) ─── -->
  <text x="434" y="124" class="serif accent" font-size="17" font-weight="600">Feeds</text>
  <line x1="420" y1="133" x2="1200" y2="133" stroke="#3a332e"/>

  <rect x="434" y="141" width="752" height="22" rx="4" class="panel" stroke="#3a332e"/>
  <text x="448" y="156" class="muted" font-size="10">Search (prompts, files, commands...)</text>

  <rect x="434" y="171" width="44" height="20" rx="10" class="panel" stroke="#3a332e"/>
  <text x="456" y="185" text-anchor="middle" class="ink" font-size="10">▶ All</text>
  <line x1="486" y1="173" x2="486" y2="189" stroke="#3a332e"/>
  <rect x="496" y="171" width="58" height="20" rx="10" fill="#3a2a26" stroke="#3a332e"/>
  <text x="525" y="185" text-anchor="middle" class="accent" font-size="10" font-weight="600">MAIN</text>
  <rect x="562" y="171" width="62" height="20" rx="10" fill="#3a2d3a" stroke="#3a332e"/>
  <text x="593" y="185" text-anchor="middle" fill="#c77bc7" font-size="10" font-weight="600">webapp</text>

  <rect x="420" y="200" width="780" height="22" class="panel"/>
  <text x="434" y="215" class="dim">▼</text>
  <rect x="448" y="206" width="50" height="12" rx="6" fill="#3a2a26"/>
  <text x="473" y="215" text-anchor="middle" class="accent" font-size="9" font-weight="600">MAIN</text>
  <text x="508" y="215" class="mono muted" font-size="10">10:30</text>
  <text x="548" y="215" class="mono ink" font-size="11">Increase hero section font size by 10%</text>
  <text x="1180" y="215" text-anchor="end" class="mono muted" font-size="10">[5]</text>

  <g class="mono" font-size="11">
    <text x="468" y="240" class="muted" font-size="10">10:30:25</text>
    <text x="530" y="240" fill="#10b981">✓</text>
    <text x="545" y="240" fill="#4ec5b5">Read</text>
    <text x="585" y="240" class="dim">dashboard.html</text>
    <text x="1180" y="240" text-anchor="end" class="muted" font-size="10">95ms</text>

    <text x="468" y="258" class="muted" font-size="10">10:30:26</text>
    <text x="530" y="258" fill="#10b981">✓</text>
    <text x="545" y="258" fill="#4ec5b5">Edit</text>
    <text x="585" y="258" class="dim">dashboard.html</text>
    <text x="1180" y="258" text-anchor="end" class="muted" font-size="10">142ms</text>

    <text x="468" y="276" fill="#10b981" font-size="13">●</text>
    <text x="486" y="276" class="dim">Done. All items scaled up 10%.</text>
  </g>

  <rect x="420" y="292" width="780" height="22" class="panel"/>
  <text x="434" y="307" class="dim">▶</text>
  <rect x="448" y="298" width="50" height="12" rx="6" fill="#3a2a26"/>
  <text x="473" y="307" text-anchor="middle" class="accent" font-size="9" font-weight="600">MAIN</text>
  <text x="508" y="307" class="mono muted" font-size="10">10:15</text>
  <text x="548" y="307" class="mono ink" font-size="11">Remove footer section</text>
  <text x="1180" y="307" text-anchor="end" class="mono muted" font-size="10">[3]</text>

  <rect x="420" y="322" width="780" height="22" class="panel"/>
  <text x="434" y="337" class="dim">▶</text>
  <rect x="448" y="328" width="62" height="12" rx="6" fill="#3a2d3a"/>
  <text x="479" y="337" text-anchor="middle" fill="#c77bc7" font-size="9" font-weight="600">webapp</text>
  <text x="520" y="337" class="mono muted" font-size="10">09:45</text>
  <text x="560" y="337" class="mono ink" font-size="11">Fix order API endpoint validation</text>
  <text x="1180" y="337" text-anchor="end" class="mono muted" font-size="10">[12]</text>

  <rect x="420" y="430" width="780" height="4" fill="#3a332e" opacity="0.5"/>

  <!-- ─── CODE VIEWER (420-770, 350 wide) ─── -->
  <rect x="420" y="434" width="350" height="24" class="panel"/>
  <text x="434" y="451" class="ink" font-size="11" font-weight="600">dashboard.html</text>
  <text x="764" y="451" text-anchor="end" class="muted" font-size="10">1,007 lines</text>
  <line x1="420" y1="458" x2="770" y2="458" stroke="#3a332e"/>

  <rect x="420" y="458" width="350" height="242" class="deep"/>
  <g class="mono" font-size="10">
    <text x="435" y="476" fill="#555">1</text><text x="460" y="476" fill="#c586c0">&lt;!DOCTYPE</text><text x="518" y="476" fill="#569cd6"> html</text><text x="548" y="476" fill="#d4d4d4">&gt;</text>
    <text x="435" y="490" fill="#555">2</text><text x="460" y="490" fill="#c586c0">&lt;html</text><text x="495" y="490" fill="#569cd6"> lang</text><text x="522" y="490" fill="#d4d4d4">=</text><text x="528" y="490" fill="#ce9178">"en"</text><text x="551" y="490" fill="#d4d4d4">&gt;</text>
    <text x="435" y="504" fill="#555">3</text><text x="460" y="504" fill="#c586c0">&lt;head&gt;</text>
    <text x="435" y="518" fill="#555">4</text><text x="470" y="518" fill="#c586c0">&lt;meta</text><text x="505" y="518" fill="#569cd6"> charset</text><text x="547" y="518" fill="#d4d4d4">=</text><text x="553" y="518" fill="#ce9178">"UTF-8"</text><text x="594" y="518" fill="#c586c0">/&gt;</text>
    <text x="435" y="532" fill="#555">5</text><text x="470" y="532" fill="#c586c0">&lt;title&gt;</text><text x="513" y="532" fill="#d4d4d4">monitor-agent</text><text x="586" y="532" fill="#c586c0">&lt;/title&gt;</text>
    <text x="435" y="546" fill="#555">6</text><text x="460" y="546" fill="#c586c0">&lt;/head&gt;</text>
    <text x="435" y="560" fill="#555">7</text><text x="460" y="560" fill="#c586c0">&lt;body&gt;</text>
    <rect x="420" y="564" width="350" height="14" fill="#f59e0b" opacity="0.18"/>
    <rect x="420" y="564" width="3" height="14" fill="#f59e0b"/>
    <text x="435" y="574" fill="#555">8</text><text x="470" y="574" fill="#c586c0">&lt;h1</text><text x="490" y="574" fill="#569cd6"> style</text><text x="520" y="574" fill="#d4d4d4">=</text><text x="526" y="574" fill="#ce9178">"font-size:1.1rem"</text><text x="622" y="574" fill="#c586c0">&gt;</text><text x="630" y="574" fill="#d4d4d4">W</text>
    <text x="435" y="588" fill="#555">9</text><text x="470" y="588" fill="#6a9955">// Main content</text>
    <text x="432" y="602" fill="#555">10</text><text x="470" y="602" fill="#c586c0">&lt;div</text><text x="496" y="602" fill="#569cd6"> class</text><text x="525" y="602" fill="#d4d4d4">=</text><text x="531" y="602" fill="#ce9178">"hero"</text><text x="567" y="602" fill="#c586c0">&gt;</text>
    <text x="432" y="616" fill="#555">11</text><text x="480" y="616" fill="#d4d4d4">...</text>
    <text x="432" y="630" fill="#555">12</text><text x="460" y="630" fill="#c586c0">&lt;/body&gt;</text>
    <text x="432" y="644" fill="#555">13</text><text x="460" y="644" fill="#c586c0">&lt;/html&gt;</text>
  </g>

  <!-- ─── DIFF VIEWER (770-1200, 430 wide) ─── -->
  <line x1="770" y1="434" x2="770" y2="700" stroke="#3a332e"/>
  <rect x="770" y="434" width="430" height="24" class="panel"/>
  <text x="784" y="451" class="ink" font-size="11" font-weight="600">Edit: dashboard.html</text>
  <text x="1186" y="451" text-anchor="end" class="muted" font-size="10">10:30:26</text>
  <line x1="770" y1="458" x2="1200" y2="458" stroke="#3a332e"/>

  <rect x="770" y="458" width="430" height="242" class="deep"/>
  <g class="mono" font-size="10">
    <rect x="770" y="468" width="430" height="16" fill="#e84a3f" opacity="0.15"/>
    <text x="784" y="480" fill="#e84a3f">-</text>
    <text x="800" y="480" fill="#d4d4d4">&lt;h1 style="font-size:1rem"&gt;</text>

    <rect x="770" y="486" width="430" height="16" fill="#e84a3f" opacity="0.15"/>
    <text x="784" y="498" fill="#e84a3f">-</text>
    <text x="800" y="498" fill="#d4d4d4">&lt;p&gt;Old description&lt;/p&gt;</text>

    <line x1="784" y1="512" x2="1180" y2="512" stroke="#3a332e" opacity="0.5" stroke-dasharray="2 2"/>

    <rect x="770" y="520" width="430" height="16" fill="#85a85c" opacity="0.18"/>
    <text x="784" y="532" fill="#85a85c">+</text>
    <text x="800" y="532" fill="#d4d4d4">&lt;h1 style="font-size:1.1rem"&gt;</text>

    <rect x="770" y="538" width="430" height="16" fill="#85a85c" opacity="0.18"/>
    <text x="784" y="550" fill="#85a85c">+</text>
    <text x="800" y="550" fill="#d4d4d4">&lt;p&gt;Updated description&lt;/p&gt;</text>
  </g>

  <!-- Footer -->
  <rect y="700" width="1200" height="20" class="panel"/>
  <line x1="0" y1="700" x2="1200" y2="700" stroke="#3a332e"/>
  <circle cx="14" cy="710" r="4" fill="#85a85c"/>
  <text x="26" y="714" class="dim" font-size="10">Connected</text>
  <text x="1186" y="714" text-anchor="end" class="muted" font-size="10">Model: Opus 4.6</text>
</svg>
