<svg xmlns="http://www.w3.org/2000/svg" viewBox="0 0 1200 720">
  <defs>
    <style>
      .bg { fill: #1d1a18; }
      .panel { fill: #252220; }
      .hover { fill: #2d2926; }
      .ink { fill: #e0d8cc; }
      .dim { fill: #9a8d82; }
      .muted { fill: #5c524a; }
      .accent { fill: #2563eb; }
      .deep { fill: #1e3a8a; }
      .soft { fill: #93c5fd; }
      .up { fill: #ef4444; }
      .down { fill: #22c55e; }
      .mono { font-family: 'Cascadia Code','Fira Code','Consolas',monospace; }
      .serif { font-family: 'Fraunces',Georgia,serif; font-style: italic; }
      .hand { font-family: 'Caveat','Comic Sans MS',cursive; }
      .ui { font-family: system-ui,-apple-system,sans-serif; }
    </style>
    <filter id="ballShadow"><feDropShadow dx="0" dy="5" stdDeviation="3" flood-opacity="0.22"/></filter>
    <radialGradient id="ballGlow" cx="50%" cy="50%" r="50%">
      <stop offset="0%" stop-color="#fde047" stop-opacity="0.55"/>
      <stop offset="55%" stop-color="#f59e0b" stop-opacity="0.22"/>
      <stop offset="100%" stop-color="#d97706" stop-opacity="0"/>
    </radialGradient>
    <!-- Wilson 3D 구 조명: solving은 외부 황금 aura가 강해서 내부 음영 약하게(opacity 0.55) -->
    <radialGradient id="wilsonLight" cx="32%" cy="28%" r="75%">
      <stop offset="0%" stop-color="#ffffff" stop-opacity="0.55"/>
      <stop offset="45%" stop-color="#ffffff" stop-opacity="0"/>
      <stop offset="100%" stop-color="#000000" stop-opacity="0.35"/>
    </radialGradient>
    <!-- 비용 tier 그라데이션 (usage-calendar.js와 동일 stops) -->
    <linearGradient id="gradAurora" x1="0%" y1="0%" x2="100%" y2="0%">
      <stop offset="0%" stop-color="#22d3ee"/>
      <stop offset="28%" stop-color="#60a5fa"/>
      <stop offset="50%" stop-color="#a78bfa"/>
      <stop offset="75%" stop-color="#e879f9"/>
      <stop offset="100%" stop-color="#f472b6"/>
    </linearGradient>
    <linearGradient id="gradSilver" x1="0%" y1="0%" x2="100%" y2="0%">
      <stop offset="0%" stop-color="#7a838c"/>
      <stop offset="20%" stop-color="#e8edf1"/>
      <stop offset="38%" stop-color="#ffffff"/>
      <stop offset="55%" stop-color="#c5ced6"/>
      <stop offset="72%" stop-color="#8a939c"/>
      <stop offset="100%" stop-color="#eef3f8"/>
    </linearGradient>
    <linearGradient id="gradGold" x1="0%" y1="0%" x2="100%" y2="0%">
      <stop offset="0%" stop-color="#8a5a0f"/>
      <stop offset="20%" stop-color="#fcd34d"/>
      <stop offset="38%" stop-color="#fef3c7"/>
      <stop offset="55%" stop-color="#eab308"/>
      <stop offset="72%" stop-color="#92630a"/>
      <stop offset="100%" stop-color="#fde68a"/>
    </linearGradient>
  </defs>

  <!-- Canvas -->
  <rect width="1200" height="720" class="bg" rx="8"/>

  <!-- Browser chrome -->
  <rect width="1200" height="36" fill="#141210" rx="8"/>
  <rect y="28" width="1200" height="8" fill="#141210"/>
  <rect x="80" y="8" width="260" height="28" rx="8" fill="#1d1a18"/>
  <circle cx="96" cy="22" r="6" class="accent"/>
  <text x="112" y="26" class="ink" font-size="11">monitor-usage</text>
  <text x="324" y="28" class="dim" font-size="14">×</text>
  <circle cx="1140" cy="18" r="6" class="muted" opacity="0.5"/>
  <circle cx="1160" cy="18" r="6" class="muted" opacity="0.5"/>
  <circle cx="1180" cy="18" r="6" class="muted" opacity="0.5"/>
  <rect y="36" width="1200" height="30" fill="#141210"/>
  <rect x="80" y="42" width="1040" height="18" rx="9" fill="#2d2926"/>
  <text x="100" y="55" class="dim" font-size="10">localhost:3141/usage</text>

  <!-- Header bar -->
  <rect y="66" width="1200" height="34" class="panel"/>
  <line x1="0" y1="100" x2="1200" y2="100" stroke="#3a332e"/>

  <!-- Wilson brand (left, stays warm red regardless of page/theme) -->
  <text x="20" y="90" class="serif" fill="#8B1A1A" font-size="19" font-weight="700">Wilson</text>

  <!-- Center: clickable page title with bidirectional arrow -->
  <text x="600" y="90" text-anchor="middle" class="serif accent" font-size="19" font-weight="700">monitor-usage</text>
  <text x="700" y="90" class="serif dim" font-size="17" font-weight="600">↔</text>

  <!-- Theme button (right, fixed 84px) -->
  <rect x="1096" y="75" width="84" height="20" rx="12" fill="none" stroke="#3a332e"/>
  <text x="1138" y="89" text-anchor="middle" class="serif dim" font-size="11" font-weight="600">Dark</text>

  <!-- ============ LEFT COLUMN (0-420) ============ -->
  <rect x="0" y="100" width="420" height="600" class="panel"/>
  <line x1="420" y1="100" x2="420" y2="700" stroke="#3a332e"/>

  <!-- Wilson hand-written status (blue hue) -->
  <g transform="rotate(-1 210 138)">
    <text x="210" y="142" text-anchor="middle" class="hand" font-weight="600" font-size="26">
      <tspan fill="#2563eb">s</tspan><tspan fill="#2563eb">o</tspan><tspan fill="#2563eb">l</tspan><tspan fill="#2563eb">v</tspan><tspan fill="#2563eb">i</tspan><tspan fill="#2563eb">n</tspan><tspan fill="#2563eb">g</tspan>
    </text>
  </g>

  <!-- Solving glow halo -->
  <circle cx="210" cy="218" r="90" fill="url(#ballGlow)"/>

  <!-- Wilson ball (keeps original crimson face, slightly smaller) -->
  <g transform="translate(150 158) scale(2.5)" filter="url(#ballShadow)">
    <circle cx="24" cy="24" r="22" fill="#f0ebe0" stroke="#d8d0c4" stroke-width="0.8"/>
    <line x1="3" y1="16" x2="45" y2="16" stroke="#ccc4b8" stroke-width="0.5"/>
    <line x1="3" y1="33" x2="45" y2="33" stroke="#ccc4b8" stroke-width="0.5"/>
    <path d="M11 14 C9 9 13 5 17 7 C19 4 22 3 25 5 C27 3 31 4 33 7 C36 5 40 9 37 14 C41 18 43 24 41 31 C39 38 33 44 24 44 C15 44 9 38 7 31 C5 24 7 18 11 14 Z" fill="#8B1A1A"/>
    <path d="M12 19 Q14 14 19 16 Q22 18 20 23 Q17 26 13 23 Q11 21 12 19 Z" fill="white" opacity="0.9"/>
    <circle cx="17" cy="18" r="2" fill="#1a1a2e"/>
    <path d="M28 16 Q33 14 36 19 Q37 22 35 24 Q31 27 28 23 Q26 19 28 16 Z" fill="white" opacity="0.9"/>
    <circle cx="33" cy="18" r="2" fill="#1a1a2e"/>
    <circle cx="24" cy="28" r="1" fill="white" opacity="0.25"/>
    <path d="M18 35 Q24 39 30 35" fill="none" stroke="white" stroke-width="1" opacity="0.35" stroke-linecap="round"/>
    <!-- 3D 구형 조명 (solving은 opacity 0.55로 약하게 — 외부 aura와 공존) -->
    <circle cx="24" cy="24" r="22" fill="url(#wilsonLight)" opacity="0.55"/>
  </g>

  <!-- Wilson speech bubble -->
  <rect x="85" y="295" width="250" height="30" rx="4" class="hover" stroke="#3a332e"/>
  <text x="210" y="314" text-anchor="middle" class="ui ink" font-size="11">tracking usage...</text>

  <!-- Divider between Wilson and Tool Timeline -->
  <line x1="0" y1="340" x2="420" y2="340" stroke="#3a332e"/>

  <!-- ===== Tool Timeline ===== -->
  <text x="14" y="358" class="serif accent" font-size="14" font-weight="600" font-style="italic">Tool Timeline</text>
  <rect x="340" y="347" width="40" height="14" rx="7" class="hover"/>
  <text x="360" y="357" text-anchor="middle" class="mono dim" font-size="9">5/13</text>
  <rect x="395" y="347" width="16" height="16" rx="2" fill="none" stroke="#3a332e"/>
  <text x="403" y="358" text-anchor="middle" class="dim" font-size="10">×</text>
  <line x1="0" y1="365" x2="420" y2="365" stroke="#3a332e"/>

  <!-- Lane separators (6 lanes, 18px each, from 365 to 473) -->
  <g stroke="#3a332e" opacity="0.5" stroke-width="0.5">
    <line x1="0" y1="383" x2="420" y2="383"/>
    <line x1="0" y1="401" x2="420" y2="401"/>
    <line x1="0" y1="419" x2="420" y2="419"/>
    <line x1="0" y1="437" x2="420" y2="437"/>
    <line x1="0" y1="455" x2="420" y2="455"/>
    <line x1="0" y1="473" x2="420" y2="473"/>
  </g>

  <!-- Tool icons scattered across lanes/time -->
  <!-- Read (blue) — is-running with pulse halo, leftmost -->
  <g>
    <circle cx="19" cy="374" r="12" fill="none" stroke="#3b82f6" stroke-width="1" opacity="0.5">
      <animate attributeName="r" values="9;14;9" dur="1.8s" repeatCount="indefinite"/>
      <animate attributeName="opacity" values="0.6;0;0.6" dur="1.8s" repeatCount="indefinite"/>
    </circle>
    <rect x="10" y="365" width="18" height="18" rx="4" fill="rgba(59,130,246,0.22)" stroke="#3b82f6" stroke-width="1.5"/>
    <path d="M14 369 h6 l3 3 v8 h-9 z" fill="none" stroke="#3b82f6" stroke-width="1.5" stroke-linejoin="round"/>
  </g>

  <!-- Bash (violet) — running, lane 2 -->
  <g>
    <circle cx="35" cy="396" r="11" fill="none" stroke="#a855f7" stroke-width="1" opacity="0.5">
      <animate attributeName="r" values="9;13;9" dur="2s" repeatCount="indefinite"/>
      <animate attributeName="opacity" values="0.6;0;0.6" dur="2s" repeatCount="indefinite"/>
    </circle>
    <rect x="26" y="387" width="18" height="18" rx="4" fill="rgba(168,85,247,0.22)" stroke="#a855f7" stroke-width="1.5"/>
    <path d="M30 392 l3 3 -3 3" fill="none" stroke="#a855f7" stroke-width="1.5" stroke-linejoin="round" stroke-linecap="round"/>
    <line x1="34" y1="400" x2="40" y2="400" stroke="#a855f7" stroke-width="1.5" stroke-linecap="round"/>
  </g>

  <!-- Write (emerald), lane 3 -->
  <g>
    <rect x="52" y="405" width="18" height="18" rx="4" fill="rgba(16,185,129,0.22)" stroke="#10b981" stroke-width="1.5"/>
    <path d="M56 420 v-3 l8 -8 3 3 -8 8 z" fill="none" stroke="#10b981" stroke-width="1.5" stroke-linejoin="round"/>
  </g>

  <!-- Edit (amber), lane 1 -->
  <g>
    <rect x="72" y="365" width="18" height="18" rx="4" fill="rgba(245,158,11,0.24)" stroke="#f59e0b" stroke-width="1.5"/>
    <path d="M78 378 l8 -8 2 2 -8 8 z" fill="none" stroke="#f59e0b" stroke-width="1.5" stroke-linejoin="round"/>
  </g>

  <!-- Glob (cyan), lane 4 -->
  <g>
    <rect x="94" y="419" width="18" height="18" rx="4" fill="rgba(6,182,212,0.22)" stroke="#06b6d4" stroke-width="1.5"/>
    <circle cx="101" cy="426" r="4" fill="none" stroke="#06b6d4" stroke-width="1.5"/>
    <line x1="104" y1="429" x2="108" y2="433" stroke="#06b6d4" stroke-width="1.5" stroke-linecap="round"/>
  </g>

  <!-- Read again, lane 2 -->
  <g>
    <rect x="118" y="387" width="18" height="18" rx="4" fill="rgba(59,130,246,0.22)" stroke="#3b82f6" stroke-width="1.5"/>
    <path d="M122 391 h6 l3 3 v8 h-9 z" fill="none" stroke="#3b82f6" stroke-width="1.5" stroke-linejoin="round"/>
  </g>

  <!-- Task (pink), lane 5 -->
  <g>
    <rect x="142" y="437" width="18" height="18" rx="4" fill="rgba(236,72,153,0.22)" stroke="#ec4899" stroke-width="1.5"/>
    <circle cx="151" cy="446" r="2.5" fill="none" stroke="#ec4899" stroke-width="1.5"/>
    <line x1="151" y1="440" x2="151" y2="442" stroke="#ec4899" stroke-width="1.5" stroke-linecap="round"/>
    <line x1="151" y1="450" x2="151" y2="452" stroke="#ec4899" stroke-width="1.5" stroke-linecap="round"/>
    <line x1="145" y1="446" x2="147" y2="446" stroke="#ec4899" stroke-width="1.5" stroke-linecap="round"/>
    <line x1="155" y1="446" x2="157" y2="446" stroke="#ec4899" stroke-width="1.5" stroke-linecap="round"/>
  </g>

  <!-- Edit, lane 3 -->
  <g>
    <rect x="170" y="405" width="18" height="18" rx="4" fill="rgba(245,158,11,0.24)" stroke="#f59e0b" stroke-width="1.5"/>
    <path d="M176 418 l8 -8 2 2 -8 8 z" fill="none" stroke="#f59e0b" stroke-width="1.5" stroke-linejoin="round"/>
  </g>

  <!-- Web (indigo), lane 6 -->
  <g>
    <rect x="200" y="455" width="18" height="18" rx="4" fill="rgba(99,102,241,0.22)" stroke="#6366f1" stroke-width="1.5"/>
    <circle cx="209" cy="464" r="5" fill="none" stroke="#6366f1" stroke-width="1.5"/>
    <ellipse cx="209" cy="464" rx="2.5" ry="5" fill="none" stroke="#6366f1" stroke-width="1.2"/>
    <line x1="204" y1="464" x2="214" y2="464" stroke="#6366f1" stroke-width="1.2"/>
  </g>

  <!-- Bash, lane 4 -->
  <g>
    <rect x="236" y="419" width="18" height="18" rx="4" fill="rgba(168,85,247,0.22)" stroke="#a855f7" stroke-width="1.5"/>
    <path d="M240 424 l3 3 -3 3" fill="none" stroke="#a855f7" stroke-width="1.5" stroke-linejoin="round" stroke-linecap="round"/>
    <line x1="244" y1="432" x2="250" y2="432" stroke="#a855f7" stroke-width="1.5" stroke-linecap="round"/>
  </g>

  <!-- Write, lane 2 -->
  <g>
    <rect x="280" y="387" width="18" height="18" rx="4" fill="rgba(16,185,129,0.22)" stroke="#10b981" stroke-width="1.5"/>
    <path d="M284 402 v-3 l8 -8 3 3 -8 8 z" fill="none" stroke="#10b981" stroke-width="1.5" stroke-linejoin="round"/>
  </g>

  <!-- Read, lane 5 (further in past) -->
  <g>
    <rect x="330" y="437" width="18" height="18" rx="4" fill="rgba(59,130,246,0.22)" stroke="#3b82f6" stroke-width="1.5"/>
    <path d="M334 441 h6 l3 3 v8 h-9 z" fill="none" stroke="#3b82f6" stroke-width="1.5" stroke-linejoin="round"/>
  </g>

  <!-- Axis labels -->
  <g class="mono dim" font-size="9">
    <text x="4" y="482">now</text>
    <text x="18" y="482">-30s</text>
    <text x="38" y="482">-1m</text>
    <text x="78" y="482">-2m</text>
    <text x="210" y="482">-5m</text>
    <text x="400" y="482" text-anchor="end">-10m</text>
  </g>

  <!-- Divider between Tool Timeline and Sessions -->
  <line x1="0" y1="495" x2="420" y2="495" stroke="#3a332e"/>

  <!-- Sessions title -->
  <text x="14" y="513" class="serif accent" font-size="15" font-weight="600">Sessions</text>
  <line x1="0" y1="521" x2="420" y2="521" stroke="#3a332e"/>

  <!-- Project: IT (blue tag, expanded) -->
  <g font-size="11">
    <text x="14" y="543" class="dim">▼</text>
    <rect x="30" y="533" width="30" height="14" rx="7" fill="#dbeafe" stroke="#2563eb" stroke-width="0.8"/>
    <text x="45" y="543" text-anchor="middle" class="accent" font-size="9" font-weight="700">main</text>
    <text x="70" y="543" class="mono ink" font-size="10">127 pr · 1.2M · $4.30</text>
  </g>

  <!-- IT session rows (compact) -->
  <g class="mono" font-size="10">
    <text x="40" y="561" class="muted">▶</text>
    <text x="54" y="561" class="dim" font-size="9">04/13</text>
    <text x="88" y="561" class="ink">| favicon 추가해줘</text>
    <text x="406" y="561" text-anchor="end" class="muted" font-size="9">23 · 180K · $0.72</text>

    <text x="40" y="577" class="muted">▶</text>
    <text x="54" y="577" class="dim" font-size="9">04/12</text>
    <text x="88" y="577" class="ink">| monitor-usage 설계</text>
    <text x="406" y="577" text-anchor="end" class="muted" font-size="9">41 · 620K · $2.10</text>
  </g>

  <!-- Project: web (red tag, expanded) -->
  <g font-size="11">
    <text x="14" y="603" class="dim">▼</text>
    <rect x="30" y="593" width="58" height="14" rx="7" fill="#fde4e4" stroke="#8B1A1A" stroke-width="0.8"/>
    <text x="59" y="603" text-anchor="middle" fill="#8B1A1A" font-size="9" font-weight="700">web</text>
    <text x="98" y="603" class="mono ink" font-size="10">45 pr · 480K · $1.80</text>
  </g>

  <g class="mono" font-size="10">
    <text x="40" y="621" class="muted">▶</text>
    <text x="54" y="621" class="dim" font-size="9">04/12</text>
    <text x="88" y="621" class="ink">| landing page 수정</text>
    <text x="406" y="621" text-anchor="end" class="muted" font-size="9">12 · 180K · $0.50</text>
  </g>

  <!-- Project: data (green tag, collapsed) -->
  <g font-size="11">
    <text x="14" y="645" class="dim">▶</text>
    <rect x="30" y="635" width="46" height="14" rx="7" fill="#dcf1d4" stroke="#4a7a35" stroke-width="0.8"/>
    <text x="53" y="645" text-anchor="middle" fill="#4a7a35" font-size="9" font-weight="700">data</text>
    <text x="86" y="645" class="mono ink" font-size="10">89 pr · 320K · $0.95</text>
  </g>

  <!-- Project: game (purple) -->
  <g font-size="11">
    <text x="14" y="669" class="dim">▶</text>
    <rect x="30" y="659" width="42" height="14" rx="7" fill="#ecdcf1" stroke="#8a4a8a" stroke-width="0.8"/>
    <text x="51" y="669" text-anchor="middle" fill="#8a4a8a" font-size="9" font-weight="700">game</text>
    <text x="82" y="669" class="mono ink" font-size="10">62 pr · 210K · $0.68</text>
  </g>

  <!-- Project: tools (teal) -->
  <g font-size="11">
    <text x="14" y="693" class="dim">▶</text>
    <rect x="30" y="683" width="50" height="14" rx="7" fill="#d4eeea" stroke="#2a7a70" stroke-width="0.8"/>
    <text x="55" y="693" text-anchor="middle" fill="#2a7a70" font-size="9" font-weight="700">tools</text>
    <text x="90" y="693" class="mono ink" font-size="10">28 pr · 140K · $0.40</text>
  </g>

  <!-- ============ RIGHT COLUMN (420-1200) ============ -->

  <!-- Usage header -->
  <text x="436" y="124" class="serif accent" font-size="17" font-weight="600">Usage</text>

  <!-- Period toggle pills -->
  <rect x="520" y="112" width="50" height="18" rx="9" class="accent"/>
  <text x="545" y="125" text-anchor="middle" fill="#ebe0c7" font-size="10" font-weight="600" class="serif">Month</text>
  <rect x="574" y="112" width="44" height="18" rx="9" fill="none" stroke="#3a332e"/>
  <text x="596" y="125" text-anchor="middle" class="serif dim" font-size="10" font-weight="600">Week</text>
  <rect x="622" y="112" width="38" height="18" rx="9" fill="none" stroke="#3a332e"/>
  <text x="641" y="125" text-anchor="middle" class="serif dim" font-size="10" font-weight="600">Day</text>

  <!-- Right side: 2m ago + Refresh -->
  <text x="1060" y="125" text-anchor="end" class="muted" font-size="10">2m ago · 22:41</text>
  <rect x="1070" y="112" width="110" height="18" rx="9" fill="#dbeafe" stroke="#2563eb" stroke-width="0.8"/>
  <text x="1125" y="125" text-anchor="middle" class="accent" font-size="10" font-weight="700">↻ Refresh</text>

  <line x1="420" y1="133" x2="1200" y2="133" stroke="#3a332e"/>

  <!-- ===== 5 Metric Cards ===== -->
  <!-- Card: Cost -->
  <rect x="436" y="145" width="146" height="66" rx="4" class="panel" stroke="#3a332e"/>
  <text x="446" y="160" class="dim" font-size="9" font-weight="600">COST</text>
  <text x="446" y="185" class="serif deep" font-size="22" font-weight="700">$45.20</text>
  <text x="446" y="202" class="up" font-size="9" font-weight="700">▲ +24%</text>
  <text x="489" y="202" class="muted" font-size="9">vs last month</text>

  <!-- Card: Tokens -->
  <rect x="590" y="145" width="146" height="66" rx="4" class="panel" stroke="#3a332e"/>
  <text x="600" y="160" class="dim" font-size="9" font-weight="600">TOKENS</text>
  <text x="600" y="185" class="serif deep" font-size="22" font-weight="700">1.2B</text>
  <text x="600" y="202" class="up" font-size="9" font-weight="700">▲ +18%</text>
  <text x="638" y="202" class="muted" font-size="9">vs last month</text>

  <!-- Card: Active Time -->
  <rect x="744" y="145" width="146" height="66" rx="4" class="panel" stroke="#3a332e"/>
  <text x="754" y="160" class="dim" font-size="9" font-weight="600">ACTIVE TIME</text>
  <text x="754" y="185" class="serif deep" font-size="22" font-weight="700">24h 30m</text>
  <text x="754" y="202" class="down" font-size="9" font-weight="700">▼ -8%</text>
  <text x="786" y="202" class="muted" font-size="9">vs last month</text>

  <!-- Card: Sessions -->
  <rect x="898" y="145" width="138" height="66" rx="4" class="panel" stroke="#3a332e"/>
  <text x="908" y="160" class="dim" font-size="9" font-weight="600">SESSIONS</text>
  <text x="908" y="185" class="serif deep" font-size="22" font-weight="700">127</text>
  <text x="908" y="202" class="up" font-size="9" font-weight="700">▲ +12</text>
  <text x="938" y="202" class="muted" font-size="9">vs last month</text>

  <!-- Card: Prompts -->
  <rect x="1044" y="145" width="140" height="66" rx="4" class="panel" stroke="#3a332e"/>
  <text x="1054" y="160" class="dim" font-size="9" font-weight="600">PROMPTS</text>
  <text x="1054" y="185" class="serif deep" font-size="22" font-weight="700">423</text>
  <text x="1054" y="202" class="up" font-size="9" font-weight="700">▲ +56</text>
  <text x="1086" y="202" class="muted" font-size="9">vs last month</text>

  <!-- ===== Daily Usage bar chart ===== -->
  <text x="436" y="236" class="serif accent" font-size="13" font-weight="600">Daily Usage</text>
  <text x="1184" y="236" text-anchor="end" class="muted" font-size="9">tokens</text>
  <line x1="436" y1="242" x2="1184" y2="242" stroke="#3a332e" opacity="0.35"/>

  <!-- Chart area 248-340 (92 tall) with baseline at 336 -->
  <line x1="436" y1="336" x2="1184" y2="336" stroke="#3a332e" opacity="0.4"/>
  <!-- Y axis ticks (inside chart area, left margin) -->
  <text x="458" y="252" text-anchor="end" class="muted" font-size="8">180K</text>
  <text x="458" y="294" text-anchor="end" class="muted" font-size="8">90K</text>
  <text x="458" y="336" text-anchor="end" class="muted" font-size="8">0</text>

  <!-- 7 bars (Mon-Sun) — width 80, gap 20 -->
  <g>
    <rect x="460" y="288" width="80" height="48" fill="#2563eb" rx="2"/>
    <text x="500" y="352" text-anchor="middle" class="muted" font-size="9">Mon</text>
    <text x="500" y="283" text-anchor="middle" class="deep" font-size="9" font-weight="600">95K</text>

    <rect x="560" y="260" width="80" height="76" fill="#2563eb" rx="2"/>
    <text x="600" y="352" text-anchor="middle" class="muted" font-size="9">Tue</text>
    <text x="600" y="255" text-anchor="middle" class="deep" font-size="9" font-weight="600">152K</text>

    <rect x="660" y="296" width="80" height="40" fill="#2563eb" rx="2"/>
    <text x="700" y="352" text-anchor="middle" class="muted" font-size="9">Wed</text>
    <text x="700" y="291" text-anchor="middle" class="deep" font-size="9" font-weight="600">78K</text>

    <rect x="760" y="248" width="80" height="88" fill="#2563eb" rx="2"/>
    <text x="800" y="352" text-anchor="middle" class="muted" font-size="9">Thu</text>
    <text x="800" y="243" text-anchor="middle" class="deep" font-size="9" font-weight="600">178K</text>

    <rect x="860" y="276" width="80" height="60" fill="#2563eb" rx="2"/>
    <text x="900" y="352" text-anchor="middle" class="muted" font-size="9">Fri</text>
    <text x="900" y="271" text-anchor="middle" class="deep" font-size="9" font-weight="600">118K</text>

    <rect x="960" y="304" width="80" height="32" fill="#2563eb" rx="2"/>
    <text x="1000" y="352" text-anchor="middle" class="muted" font-size="9">Sat</text>
    <text x="1000" y="299" text-anchor="middle" class="deep" font-size="9" font-weight="600">62K</text>

    <rect x="1060" y="268" width="80" height="68" fill="#2563eb" rx="2"/>
    <text x="1100" y="352" text-anchor="middle" class="muted" font-size="9">Sun</text>
    <text x="1100" y="263" text-anchor="middle" class="deep" font-size="9" font-weight="600">135K</text>
  </g>

  <!-- ===== Model Breakdown donut + Top Projects ===== -->
  <line x1="420" y1="370" x2="1200" y2="370" stroke="#3a332e" opacity="0.35"/>

  <text x="436" y="390" class="serif accent" font-size="13" font-weight="600">Model Breakdown</text>
  <text x="800" y="390" class="serif accent" font-size="13" font-weight="600">Top Projects</text>

  <!-- Donut (center 540, 468; r_outer 54, r_inner 32) — 5 세그먼트 clockwise -->
  <!-- 색상: 실제 앱(usage-charts.js)의 MODEL_COLORS와 정렬 (Opus 4.7 blue / 4.6 wine) -->
  <!-- Opus 4.7 25% (0° → 90°) — blue -->
  <path d="M 540 414 A 54 54 0 0 1 594 468 L 572 468 A 32 32 0 0 0 540 436 Z" fill="#2563eb"/>
  <!-- Opus 4.6 15% (90° → 144°) — wine (legacy) -->
  <path d="M 594 468 A 54 54 0 0 1 571.74 511.69 L 558.81 493.89 A 32 32 0 0 0 572 468 Z" fill="#8e1e3a"/>
  <!-- Sonnet 4.6 30% (144° → 252°) — green -->
  <path d="M 571.74 511.69 A 54 54 0 0 1 488.64 484.69 L 509.56 477.89 A 32 32 0 0 0 558.81 493.89 Z" fill="#22c55e"/>
  <!-- Haiku 4.5 25% (252° → 342°) — yellow -->
  <path d="M 488.64 484.69 A 54 54 0 0 1 523.31 416.64 L 530.11 437.56 A 32 32 0 0 0 509.56 477.89 Z" fill="#eab308"/>
  <!-- Unknown 5% (342° → 360°) — gray -->
  <path d="M 523.31 416.64 A 54 54 0 0 1 540 414 L 540 436 A 32 32 0 0 0 530.11 437.56 Z" fill="#9ca3af"/>

  <!-- donut center text -->
  <text x="540" y="465" text-anchor="middle" class="serif deep" font-size="14" font-weight="700">1.2B</text>
  <text x="540" y="478" text-anchor="middle" class="muted" font-size="8">total</text>

  <!-- Legend (5 models, spacing 16px) -->
  <rect x="625" y="400" width="10" height="10" fill="#2563eb" rx="2"/>
  <text x="640" y="409" class="ink" font-size="11">Opus 4.7</text>
  <text x="770" y="409" text-anchor="end" class="mono dim" font-size="10">25%</text>

  <rect x="625" y="418" width="10" height="10" fill="#8e1e3a" rx="2"/>
  <text x="640" y="427" class="ink" font-size="11">Opus 4.6</text>
  <text x="770" y="427" text-anchor="end" class="mono dim" font-size="10">15%</text>

  <rect x="625" y="436" width="10" height="10" fill="#22c55e" rx="2"/>
  <text x="640" y="445" class="ink" font-size="11">Sonnet 4.6</text>
  <text x="770" y="445" text-anchor="end" class="mono dim" font-size="10">30%</text>

  <rect x="625" y="454" width="10" height="10" fill="#eab308" rx="2"/>
  <text x="640" y="463" class="ink" font-size="11">Haiku 4.5</text>
  <text x="770" y="463" text-anchor="end" class="mono dim" font-size="10">25%</text>

  <rect x="625" y="472" width="10" height="10" fill="#9ca3af" rx="2"/>
  <text x="640" y="481" class="ink" font-size="11">Unknown</text>
  <text x="770" y="481" text-anchor="end" class="mono dim" font-size="10">5%</text>

  <!-- Top Projects list -->
  <g font-size="11">
    <rect x="800" y="410" width="30" height="14" rx="7" fill="#dbeafe" stroke="#2563eb" stroke-width="0.8"/>
    <text x="815" y="420" text-anchor="middle" class="accent" font-size="9" font-weight="700">main</text>
    <rect x="838" y="414" width="180" height="6" fill="#2563eb" rx="3"/>
    <text x="1184" y="420" text-anchor="end" class="mono ink" font-size="10">1.2M · $4.30</text>

    <rect x="800" y="432" width="58" height="14" rx="7" fill="#fde4e4" stroke="#8B1A1A" stroke-width="0.8"/>
    <text x="829" y="442" text-anchor="middle" fill="#8B1A1A" font-size="9" font-weight="700">web</text>
    <rect x="866" y="436" width="90" height="6" fill="#8B1A1A" rx="3"/>
    <text x="1184" y="442" text-anchor="end" class="mono ink" font-size="10">480K · $1.80</text>

    <rect x="800" y="454" width="46" height="14" rx="7" fill="#dcf1d4" stroke="#4a7a35" stroke-width="0.8"/>
    <text x="823" y="464" text-anchor="middle" fill="#4a7a35" font-size="9" font-weight="700">data</text>
    <rect x="854" y="458" width="64" height="6" fill="#4a7a35" rx="3"/>
    <text x="1184" y="464" text-anchor="end" class="mono ink" font-size="10">320K · $0.95</text>

    <rect x="800" y="476" width="42" height="14" rx="7" fill="#ecdcf1" stroke="#8a4a8a" stroke-width="0.8"/>
    <text x="821" y="486" text-anchor="middle" fill="#8a4a8a" font-size="9" font-weight="700">game</text>
    <rect x="850" y="480" width="42" height="6" fill="#8a4a8a" rx="3"/>
    <text x="1184" y="486" text-anchor="end" class="mono ink" font-size="10">210K · $0.68</text>

    <rect x="800" y="498" width="50" height="14" rx="7" fill="#d4eeea" stroke="#2a7a70" stroke-width="0.8"/>
    <text x="825" y="508" text-anchor="middle" fill="#2a7a70" font-size="9" font-weight="700">tools</text>
    <rect x="858" y="502" width="28" height="6" fill="#2a7a70" rx="3"/>
    <text x="1184" y="508" text-anchor="end" class="mono ink" font-size="10">140K · $0.40</text>
  </g>

  <!-- ===== Month Grid (실제 앱 레이아웃: 셀 내부에 date + tokens + $cost + 바닥 그라데이션 바) ===== -->
  <line x1="420" y1="540" x2="1200" y2="540" stroke="#3a332e" opacity="0.35"/>
  <text x="436" y="560" class="serif accent" font-size="13" font-weight="600">◀  2026-04  ▶</text>

  <!-- Cost-tier legend (5 단계: green/red/aurora/silver/gold) -->
  <g font-size="8">
    <rect x="598" y="553" width="12" height="6" fill="#22c55e" rx="1"/>
    <text x="614" y="559" class="ink">&lt;$200</text>
    <rect x="660" y="553" width="12" height="6" fill="#ef4444" rx="1"/>
    <text x="676" y="559" class="ink">$200–500</text>
    <rect x="738" y="553" width="18" height="6" fill="url(#gradAurora)" rx="1"/>
    <text x="760" y="559" class="ink">$500–1K</text>
    <rect x="820" y="553" width="18" height="6" fill="url(#gradSilver)" rx="1"/>
    <text x="842" y="559" class="ink">$1K–2K</text>
    <rect x="896" y="553" width="18" height="6" fill="url(#gradGold)" rx="1"/>
    <text x="918" y="559" class="ink">$2K+</text>
  </g>

  <!-- Day headers (일-토) -->
  <g class="muted" font-size="9" text-anchor="middle">
    <text x="470" y="578">Sun</text>
    <text x="570" y="578">Mon</text>
    <text x="670" y="578">Tue</text>
    <text x="770" y="578">Wed</text>
    <text x="870" y="578">Thu</text>
    <text x="970" y="578">Fri</text>
    <text x="1070" y="578">Sat</text>
  </g>

  <!-- ── Row 1: 3월 말(빈 셀) + Apr 1-4 (Wed-Sat) ── -->
  <g>
    <!-- is-empty: 이전 달 빈 셀 (투명) -->
    <rect x="428" y="585" width="84" height="36" fill="none" rx="3"/>
    <rect x="528" y="585" width="84" height="36" fill="none" rx="3"/>
    <rect x="628" y="585" width="84" height="36" fill="none" rx="3"/>

    <!-- Apr 1 Wed $180 green -->
    <rect x="728" y="585" width="84" height="36" fill="#1d1a18" stroke="#3a332e" rx="3"/>
    <text x="734" y="597" font-size="10" fill="#e0d8cc" font-weight="600">1</text>
    <text x="734" y="610" font-size="8" fill="#9a8d82">120K</text>
    <text x="806" y="610" text-anchor="end" font-size="9" fill="#c0524b" font-weight="700">$180</text>
    <rect x="731" y="614" width="78" height="4" fill="#22c55e" rx="2"/>

    <!-- Apr 2 Thu $62 green -->
    <rect x="828" y="585" width="84" height="36" fill="#1d1a18" stroke="#3a332e" rx="3"/>
    <text x="834" y="597" font-size="10" fill="#e0d8cc" font-weight="600">2</text>
    <text x="834" y="610" font-size="8" fill="#9a8d82">40K</text>
    <text x="906" y="610" text-anchor="end" font-size="9" fill="#c0524b" font-weight="700">$62</text>
    <rect x="831" y="614" width="78" height="4" fill="#22c55e" rx="2"/>

    <!-- Apr 3 Fri is-blank (데이터 없음, 흐리게) -->
    <rect x="928" y="585" width="84" height="36" fill="#1d1a18" stroke="#3a332e" rx="3" opacity="0.4"/>
    <text x="934" y="597" font-size="10" fill="#e0d8cc" font-weight="600" opacity="0.4">3</text>

    <!-- Apr 4 Sat $95 green -->
    <rect x="1028" y="585" width="84" height="36" fill="#1d1a18" stroke="#3a332e" rx="3"/>
    <text x="1034" y="597" font-size="10" fill="#e0d8cc" font-weight="600">4</text>
    <text x="1034" y="610" font-size="8" fill="#9a8d82">65K</text>
    <text x="1106" y="610" text-anchor="end" font-size="9" fill="#c0524b" font-weight="700">$95</text>
    <rect x="1031" y="614" width="78" height="4" fill="#22c55e" rx="2"/>
  </g>

  <!-- ── Row 2: Apr 5-11 (Sun-Sat) — 5 tier 전부 시연 ── -->
  <g>
    <!-- Apr 5 Sun $450 RED ($200-500) -->
    <rect x="428" y="624" width="84" height="36" fill="#1d1a18" stroke="#3a332e" rx="3"/>
    <text x="434" y="636" font-size="10" fill="#e0d8cc" font-weight="600">5</text>
    <text x="434" y="649" font-size="8" fill="#9a8d82">280K</text>
    <text x="506" y="649" text-anchor="end" font-size="9" fill="#c0524b" font-weight="700">$450</text>
    <rect x="431" y="653" width="78" height="4" fill="#ef4444" rx="2"/>

    <!-- Apr 6 Mon $1580 SILVER ($1K-2K) -->
    <rect x="528" y="624" width="84" height="36" fill="#1d1a18" stroke="#3a332e" rx="3"/>
    <text x="534" y="636" font-size="10" fill="#e0d8cc" font-weight="600">6</text>
    <text x="534" y="649" font-size="8" fill="#9a8d82">1.1M</text>
    <text x="606" y="649" text-anchor="end" font-size="9" fill="#c0524b" font-weight="700">$1,580</text>
    <rect x="531" y="653" width="78" height="4" fill="url(#gradSilver)" rx="2"/>

    <!-- Apr 7 Tue $230 RED -->
    <rect x="628" y="624" width="84" height="36" fill="#1d1a18" stroke="#3a332e" rx="3"/>
    <text x="634" y="636" font-size="10" fill="#e0d8cc" font-weight="600">7</text>
    <text x="634" y="649" font-size="8" fill="#9a8d82">160K</text>
    <text x="706" y="649" text-anchor="end" font-size="9" fill="#c0524b" font-weight="700">$230</text>
    <rect x="631" y="653" width="78" height="4" fill="#ef4444" rx="2"/>

    <!-- Apr 8 Wed $105 green -->
    <rect x="728" y="624" width="84" height="36" fill="#1d1a18" stroke="#3a332e" rx="3"/>
    <text x="734" y="636" font-size="10" fill="#e0d8cc" font-weight="600">8</text>
    <text x="734" y="649" font-size="8" fill="#9a8d82">70K</text>
    <text x="806" y="649" text-anchor="end" font-size="9" fill="#c0524b" font-weight="700">$105</text>
    <rect x="731" y="653" width="78" height="4" fill="#22c55e" rx="2"/>

    <!-- Apr 9 Thu $68 green -->
    <rect x="828" y="624" width="84" height="36" fill="#1d1a18" stroke="#3a332e" rx="3"/>
    <text x="834" y="636" font-size="10" fill="#e0d8cc" font-weight="600">9</text>
    <text x="834" y="649" font-size="8" fill="#9a8d82">45K</text>
    <text x="906" y="649" text-anchor="end" font-size="9" fill="#c0524b" font-weight="700">$68</text>
    <rect x="831" y="653" width="78" height="4" fill="#22c55e" rx="2"/>

    <!-- Apr 10 Fri $720 AURORA ($500-1K) -->
    <rect x="928" y="624" width="84" height="36" fill="#1d1a18" stroke="#3a332e" rx="3"/>
    <text x="934" y="636" font-size="10" fill="#e0d8cc" font-weight="600">10</text>
    <text x="934" y="649" font-size="8" fill="#9a8d82">520K</text>
    <text x="1006" y="649" text-anchor="end" font-size="9" fill="#c0524b" font-weight="700">$720</text>
    <rect x="931" y="653" width="78" height="4" fill="url(#gradAurora)" rx="2"/>

    <!-- Apr 11 Sat $2850 GOLD ($2K+) — A 뱃지 (Anthropic dislikes it, 마우스오버 툴팁) -->
    <rect x="1028" y="624" width="84" height="36" fill="#1d1a18" stroke="#3a332e" rx="3"/>
    <text x="1034" y="636" font-size="10" fill="#e0d8cc" font-weight="600">11</text>
    <circle cx="1105" cy="633" r="5" fill="#eab308" stroke="#fcd34d" stroke-width="0.5"/>
    <text x="1105" y="636" text-anchor="middle" fill="#3b2a0a" font-size="7" font-weight="700">A</text>
    <text x="1034" y="649" font-size="8" fill="#9a8d82">1.9M</text>
    <text x="1106" y="649" text-anchor="end" font-size="9" fill="#c0524b" font-weight="700">$2,850</text>
    <rect x="1031" y="653" width="78" height="4" fill="url(#gradGold)" rx="2"/>
  </g>

  <!-- ── Row 3: Apr 12-14 (TODAY) + 15-18 future ── -->
  <g>
    <!-- Apr 12 Sun $52 green -->
    <rect x="428" y="663" width="84" height="36" fill="#1d1a18" stroke="#3a332e" rx="3"/>
    <text x="434" y="675" font-size="10" fill="#e0d8cc" font-weight="600">12</text>
    <text x="434" y="688" font-size="8" fill="#9a8d82">35K</text>
    <text x="506" y="688" text-anchor="end" font-size="9" fill="#c0524b" font-weight="700">$52</text>
    <rect x="431" y="692" width="78" height="4" fill="#22c55e" rx="2"/>

    <!-- Apr 13 Mon $134 green -->
    <rect x="528" y="663" width="84" height="36" fill="#1d1a18" stroke="#3a332e" rx="3"/>
    <text x="534" y="675" font-size="10" fill="#e0d8cc" font-weight="600">13</text>
    <text x="534" y="688" font-size="8" fill="#9a8d82">85K</text>
    <text x="606" y="688" text-anchor="end" font-size="9" fill="#c0524b" font-weight="700">$134</text>
    <rect x="531" y="692" width="78" height="4" fill="#22c55e" rx="2"/>

    <!-- Apr 14 Tue TODAY — accent 2px border, date in accent -->
    <rect x="628" y="663" width="84" height="36" fill="#1d1a18" stroke="#c0524b" stroke-width="2" rx="3"/>
    <text x="634" y="675" font-size="10" fill="#c0524b" font-weight="700">14</text>
    <text x="634" y="688" font-size="8" fill="#9a8d82">60K</text>
    <text x="706" y="688" text-anchor="end" font-size="9" fill="#c0524b" font-weight="700">$99</text>
    <rect x="631" y="692" width="78" height="4" fill="#22c55e" rx="2"/>

    <!-- Apr 15-18: is-future (옅게, 빈 내용) -->
    <rect x="728" y="663" width="84" height="36" fill="#1d1a18" stroke="#3a332e" rx="3" opacity="0.3"/>
    <text x="734" y="675" font-size="10" fill="#9a8d82" font-weight="600" opacity="0.5">15</text>
    <rect x="828" y="663" width="84" height="36" fill="#1d1a18" stroke="#3a332e" rx="3" opacity="0.3"/>
    <text x="834" y="675" font-size="10" fill="#9a8d82" font-weight="600" opacity="0.5">16</text>
    <rect x="928" y="663" width="84" height="36" fill="#1d1a18" stroke="#3a332e" rx="3" opacity="0.3"/>
    <text x="934" y="675" font-size="10" fill="#9a8d82" font-weight="600" opacity="0.5">17</text>
    <rect x="1028" y="663" width="84" height="36" fill="#1d1a18" stroke="#3a332e" rx="3" opacity="0.3"/>
    <text x="1034" y="675" font-size="10" fill="#9a8d82" font-weight="600" opacity="0.5">18</text>
  </g>

  <!-- Footer -->
  <rect y="700" width="1200" height="20" class="panel"/>
  <line x1="0" y1="700" x2="1200" y2="700" stroke="#3a332e"/>
  <circle cx="14" cy="710" r="4" fill="#4a7a35"/>
  <text x="26" y="714" class="dim" font-size="10">Connected</text>
  <text x="1186" y="714" text-anchor="end" class="muted" font-size="10">Model: Opus 4.7 · 245 events · 1.23MB</text>
</svg>
